<svg width="254" height="88" viewBox="0 0 254 88" fill="none" xmlns="http://www.w3.org/2000/svg">
<path d="M54.895 10.5017C54.3658 11.135 54.4187 11.3462 55.2125 11.61C56.9587 12.2434 58.6521 14.0378 58.07 14.7239C57.7525 15.0934 57.7525 15.9378 58.0171 16.9934C58.5462 18.735 58.07 19.4739 55.53 20.7406C54.895 21.11 54.4716 21.585 54.6304 21.9017C55.1066 22.6406 56.4825 22.4823 56.4825 21.6906C56.4825 21.3212 57.1704 20.3184 58.0171 19.5267C59.2871 18.3128 59.7104 18.1545 60.61 18.6295C62.1975 19.4739 63.4146 19.3156 64.6846 18.1545C65.3196 17.5739 66.9071 16.8878 68.1771 16.6767L70.5054 16.2545L68.1771 15.885C66.7483 15.6212 65.5312 15.0406 65.1079 14.46C64.6846 13.8795 64.1554 13.4045 63.8379 13.4045C63.5733 13.4045 63.8379 13.8795 64.42 14.46C65.4254 15.4628 65.3725 16.5712 64.2612 17.9962C63.4675 19.0517 61.4037 18.7878 60.5041 17.5739C59.6575 16.36 59.8691 15.0934 61.1391 14.0378C61.6154 13.7212 61.7212 13.4045 61.4566 13.4045C61.1391 13.4045 60.6629 13.6684 60.2925 14.0378C59.8162 14.5128 59.2871 14.3017 58.07 13.1406C57.2233 12.2962 56.4825 11.3462 56.4825 10.9767C56.4825 9.92116 55.5829 9.65727 54.895 10.5017Z" fill="white"/>
<path d="M36.1621 18.6823C21.61 21.7434 13.7254 25.4379 7.2167 32.2462C-1.40872 41.2712 -2.36122 53.199 4.6767 63.5962C8.4867 69.2434 14.7309 73.5712 22.88 76.3157C26.2138 77.424 27.5367 77.5295 35.58 77.5295C43.9409 77.4768 44.8934 77.424 48.8092 76.1045C57.17 73.3073 63.8904 67.9768 67.2242 61.4851C68.2296 59.5851 69.235 57.474 69.4467 56.7879L69.7642 55.6268H53.2542H36.7442L34.4688 57.5268C33.1988 58.5295 32.1404 59.7434 32.1404 60.1129C32.1404 60.5351 31.6642 61.1157 31.0821 61.4323C30.0767 61.9601 30.0238 61.8545 30.0238 58.5295V55.099H33.0929C36.215 55.099 37.4321 54.5184 37.4321 52.9351C37.4321 52.4601 37.9084 51.9323 38.4904 51.774C39.39 51.5629 39.5488 51.0351 39.5488 48.8712C39.5488 46.4434 39.6546 46.1795 41.1363 45.599C43.3059 44.7018 44.3113 43.1712 44.3113 40.7962C44.3113 38.6323 42.2475 36.099 40.5542 36.099C39.7075 36.099 39.5488 35.6768 39.5488 33.1434C39.5488 30.6629 39.39 30.1351 38.4904 29.924C37.9084 29.7657 37.4321 29.2379 37.4321 28.7101C37.4321 26.9157 36.1621 26.5462 30.2354 26.7045L24.4675 26.8629L24.3088 28.2879C24.2029 29.1323 23.7796 29.7657 23.4092 29.7657C22.9859 29.7657 22.4567 30.0823 22.245 30.5045C22.0334 30.9268 21.3454 31.2962 20.7634 31.4545C19.7579 31.6129 19.705 32.0879 19.5463 44.1212L19.4404 56.5768L22.6684 60.4295C25.6317 63.9657 25.8434 64.3351 24.785 64.4934C22.8271 64.8101 17.9588 61.9601 15.2071 58.9518C9.4392 52.6712 7.64003 44.649 10.3917 37.524C13.3021 29.9768 23.9913 23.0629 39.0196 18.9462C44.3642 17.4684 42.7767 17.3101 36.1621 18.6823ZM36.3738 31.7184V36.3629L30.5529 36.2045L24.7321 36.0462V31.9295C24.7321 29.6601 24.8909 27.6545 25.1025 27.4962C25.2613 27.2851 27.9071 27.1268 30.9234 27.1268H36.3738V31.7184ZM24.2029 41.1657C24.2029 49.1879 24.0442 51.4573 23.5679 51.299C23.0388 51.0879 22.8271 48.5545 22.7213 41.324C22.5625 31.5073 22.7213 29.9768 23.6738 30.5573C23.9913 30.7684 24.2029 34.8323 24.2029 41.1657ZM38.755 40.7434C38.755 48.5545 38.5963 50.8768 38.12 50.8768C37.5909 50.8768 37.4321 48.5018 37.4321 40.5323C37.4321 32.6157 37.5909 30.2407 38.0671 30.399C38.5434 30.5573 38.755 33.249 38.755 40.7434ZM22.0863 41.9573C22.0863 51.0351 22.1392 51.5101 23.1446 51.774C23.7267 51.9323 24.2029 52.4601 24.2029 52.9351C24.2029 54.3601 25.3142 55.099 27.4838 55.099H29.4946V58.6351C29.4946 62.0657 29.3888 62.2768 27.9071 63.1212L26.3725 63.9657L23.4621 60.4295L20.4988 56.8407V44.5962C20.4988 34.0934 20.6046 32.4045 21.2925 32.4045C21.9804 32.4045 22.0863 33.8295 22.0863 41.9573ZM42.4592 37.9462C43.2529 38.6851 43.7821 39.8462 43.7821 40.7434C43.7821 42.5379 42.1417 44.8073 40.6071 45.2295C39.6017 45.4934 39.5488 45.2823 39.5488 41.0601C39.5488 36.099 40.0779 35.5184 42.4592 37.9462ZM36.3738 41.3768V45.6518L30.7117 45.4934L24.9967 45.3351L24.8379 41.2184L24.6792 37.1545H30.5529H36.3738V41.3768ZM36.3738 50.0851V54.0434H30.5529H24.7321V50.0851V46.1268H30.5529H36.3738V50.0851ZM40.6071 60.3768C40.6071 60.5879 39.6546 61.4851 38.5434 62.3823L36.4267 64.0712L34.7334 61.9073L32.9871 59.6907L35.0509 57.8434L37.1146 55.9434L38.8609 58.0018C39.8134 59.1101 40.6071 60.1657 40.6071 60.3768ZM33.9396 65.0212L32.5109 66.2879L31.135 64.8629L29.7592 63.4907L31.2938 62.1184L32.8813 60.799L34.0984 62.2768L35.3154 63.8073L33.9396 65.0212ZM32.1404 67.2907C32.1404 67.5018 31.2938 68.399 30.2354 69.349L28.3304 70.9851L27.0075 69.7712C24.4675 67.3962 24.4146 66.7101 26.6371 64.8101L28.7009 63.0684L30.3942 65.0212C31.3467 66.0768 32.0875 67.1323 32.1404 67.2907Z" fill="white"/>
<path d="M98.1806 24.3294L98.0218 26.335L94.9526 26.7044C90.8251 27.2322 87.5972 28.7628 86.0626 30.8739C84.9514 32.4572 84.7926 33.3544 84.6339 38.21C84.5281 43.1711 84.6339 43.9628 85.6922 45.8628C87.1739 48.4489 90.4547 50.1905 94.8997 50.7711L98.0218 51.1405L98.1806 53.0933L98.3393 55.0989H101.197H104.054L104.213 53.0933C104.372 51.1933 104.425 51.1405 107.018 50.8239C115.696 49.7155 118.553 46.7072 118.501 38.7378C118.501 34.1989 117.866 32.2461 115.855 30.135C114.056 28.235 111.621 27.2322 107.864 26.7572C104.636 26.3878 104.107 26.0183 104.107 23.8017C104.107 22.4294 104.001 22.3767 101.25 22.3767H98.3393L98.1806 24.3294ZM98.0218 38.7378V45.8628L95.9051 45.7044C94.741 45.5989 93.2593 45.1767 92.6243 44.7544C90.9839 43.6989 90.1372 40.4794 90.5606 36.9961C90.9839 33.7767 91.9893 32.51 94.6881 31.8767C98.0747 31.0322 98.0218 30.9267 98.0218 38.7378ZM108.446 31.8767C111.357 32.7211 112.045 34.0405 112.045 38.8961C112.045 42.485 111.886 43.1711 110.828 44.2267C109.611 45.4405 105.589 46.4433 104.583 45.81C104.054 45.4933 103.948 32.5628 104.478 31.7183C104.795 31.1905 106.118 31.2433 108.446 31.8767Z" fill="white"/>
<path d="M131.094 28.0239C129.031 33.1962 121.569 54.2545 121.569 54.8878C121.569 55.0462 123.051 55.0989 124.85 54.9934L128.131 54.835L129.295 51.1406L130.459 47.4462L137.868 47.2878L145.329 47.1295L146.758 51.0878L148.239 54.9934L151.573 55.2045C153.425 55.31 154.907 55.1517 154.907 54.8878C154.907 54.5712 153.901 51.8795 152.684 48.8184C151.52 45.7573 148.927 38.5795 146.969 32.9323L143.371 22.6406L138.397 22.4823L133.37 22.3239L131.094 28.0239ZM141.043 34.41C142.26 38.1045 143.265 41.3239 143.265 41.535C143.265 41.7462 140.778 41.9045 137.709 41.9045C134.64 41.9045 132.153 41.8517 132.153 41.7462C132.153 41.4295 136.915 28.5517 137.233 28.1295C138.079 26.7573 139.032 28.3406 141.043 34.41Z" fill="white"/>
<path d="M161.257 38.7378V55.0989H164.432H167.607V47.4461C167.607 40.11 167.66 39.7933 168.665 39.7933C172.422 39.7933 176.55 43.91 179.566 50.6128L181.577 55.0989H185.175H188.721L188.033 53.0933C185.704 46.5489 181.63 40.3211 178.455 38.4211L176.074 37.0489L179.143 33.5655C182 30.2933 186.445 24.5933 187.398 23.01C187.662 22.535 186.921 22.3767 184.117 22.3767H180.466L177.026 26.9683C173.269 31.9294 168.295 37.6822 167.713 37.6822C167.501 37.6822 167.395 34.2517 167.501 30.0294L167.66 22.3767H164.485H161.257V38.7378Z" fill="white"/>
<path d="M195.124 38.7378V55.0989H207.03H218.937V52.46V49.8211H210.205H201.421L201.58 45.2294L201.739 40.6905L207.824 40.6378L213.909 40.585L214.068 38.0517L214.227 35.5711H207.877H201.474V31.6128C201.474 28.8155 201.686 27.6544 202.162 27.6544C202.479 27.6017 206.448 27.6017 210.893 27.6544L218.937 27.7072V25.0155V22.3767H207.03H195.124V38.7378Z" fill="white"/>
<path d="M232.271 29.9239C231.318 41.6933 229.202 48.2906 226.08 49.7156C225.127 50.1378 224.757 50.6656 224.915 51.2989C225.074 51.7739 225.339 53.0933 225.55 54.2017C225.868 56.1017 225.974 56.2072 227.297 55.8906C232.641 54.5711 236.398 46.5489 238.039 32.985L238.674 27.6544H243.383H248.04V41.3767V55.0989H250.95H253.861V38.7378V22.3767H243.383H232.906L232.271 29.9239Z" fill="white"/>
<path d="M48.9154 37.0489C47.857 37.26 47.7512 37.9989 48.7037 38.4211C49.18 38.685 49.18 38.7906 48.6508 39.0545C48.1216 39.3184 48.1216 39.5295 48.5979 40.1628C49.127 40.7434 49.127 41.0073 48.5979 41.3767C48.0158 41.6934 48.0158 41.7989 48.5979 42.01C49.2329 42.2211 49.2329 42.3795 48.6508 43.1184C48.0158 43.8573 48.1216 44.0156 49.2329 44.2795C52.6195 45.1767 68.4416 42.4323 69.447 40.8489C69.8175 40.2684 68.1241 39.5295 63.785 38.4211C60.7687 37.6295 50.6616 36.7323 48.9154 37.0489Z" fill="white"/>
</svg>
