<svg width="24" height="24" viewBox="0 0 24 24" fill="none" xmlns="http://www.w3.org/2000/svg">
<path d="M12 0.529297C5.37 0.529297 0 5.9023 0 12.5293C0 17.8323 3.438 22.3293 8.205 23.9143C8.805 24.0273 9.025 23.6563 9.025 23.3373C9.025 23.0523 9.015 22.2973 9.01 21.2973C5.672 22.0213 4.968 19.6873 4.968 19.6873C4.422 18.3023 3.633 17.9323 3.633 17.9323C2.546 17.1883 3.717 17.2033 3.717 17.2033C4.922 17.2873 5.555 18.4393 5.555 18.4393C6.625 20.2743 8.364 19.7443 9.05 19.4373C9.158 18.6613 9.467 18.1323 9.81 17.8323C7.145 17.5323 4.344 16.5003 4.344 11.9023C4.344 10.5923 4.809 9.5223 5.579 8.6823C5.444 8.3793 5.039 7.1593 5.684 5.5063C5.684 5.5063 6.689 5.1843 8.984 6.7363C9.944 6.4693 10.964 6.3373 11.984 6.3313C13.004 6.3373 14.024 6.4693 14.984 6.7363C17.264 5.1843 18.269 5.5063 18.269 5.5063C18.914 7.1593 18.509 8.3793 18.389 8.6823C19.154 9.5223 19.619 10.5923 19.619 11.9023C19.619 16.5123 16.814 17.5273 14.144 17.8223C14.564 18.1823 14.954 18.9183 14.954 20.0423C14.954 21.6483 14.939 22.9383 14.939 23.3283C14.939 23.6433 15.149 24.0183 15.764 23.8983C20.565 22.3243 24 17.8243 24 12.5293C24 5.9023 18.627 0.529297 12 0.529297Z" fill="white"/>
</svg>
