<svg width="24" height="25" viewBox="0 0 24 25" fill="none" xmlns="http://www.w3.org/2000/svg">
<g clip-path="url(#clip0_20_60)">
<path d="M1.1399 9.82436L1.3099 10.0774C0.969898 10.0674 0.613898 10.0344 0.545898 9.88836C0.545898 9.88136 0.547898 9.87436 0.549898 9.86736C0.739898 9.81736 0.902898 9.81436 1.1399 9.82436ZM2.9459 10.5944L3.0279 10.8444L2.8359 10.8524L2.8819 10.5964C2.90327 10.5964 2.92462 10.5964 2.9459 10.5944ZM3.5999 12.4194C3.4299 12.5754 3.2989 12.6794 3.1979 12.9164C3.0579 12.8014 2.9849 12.5734 2.9399 12.3184C2.8899 12.0404 2.8739 11.7314 2.8359 11.5004L2.8479 11.3824L3.0449 11.3684L3.5469 12.3184L3.5999 12.4184V12.4194ZM3.3459 10.0774C3.37083 9.90658 3.3965 9.73591 3.4229 9.56536L3.4879 9.56136C3.4399 9.73336 3.3919 9.90536 3.3459 10.0774ZM3.2089 7.75536L4.1089 7.99936C4.10743 8.01268 4.1061 8.02601 4.1049 8.03936C3.6859 8.34936 3.2989 8.48536 3.0909 9.04536L3.1699 7.79936L3.2089 7.75636V7.75536ZM4.0489 6.46536C3.9909 7.04536 4.0729 7.30136 4.1739 7.66136C4.3339 7.77536 4.3979 7.84436 4.3459 8.01336C4.0759 7.87936 3.7899 7.73936 3.3759 7.76136C3.3658 7.74977 3.3558 7.73811 3.3459 7.72636C3.4619 7.26936 3.6879 6.98836 3.8629 6.62636L4.0499 6.46436L4.0489 6.46536ZM5.3429 5.69336L5.3819 5.69036C5.2579 6.11836 5.2079 7.10536 4.9909 7.49736C4.4779 7.25436 4.4879 6.20136 5.0619 5.78536L5.3429 5.69336ZM4.8649 8.86336L5.2969 9.33236C5.1269 9.85436 4.8059 10.2474 4.6699 10.8524L4.4149 10.8324C4.1969 10.2234 4.7419 9.23136 4.8349 8.78736L5.2349 8.83336C5.2849 8.95836 5.3329 9.08336 5.3819 9.20936L4.8649 8.86336ZM6.0469 5.68936C6.0029 6.19636 6.1149 6.45936 6.1449 6.85136C5.8909 6.98136 5.6359 7.10936 5.3819 7.23836C5.42908 6.71355 5.55481 6.19881 5.7549 5.71136L6.0469 5.68936ZM6.3429 4.91936L6.3999 4.91536L6.3139 5.16236L6.1449 5.17336L6.2749 5.02036L6.3429 4.91936ZM6.3999 7.28436L5.6359 7.75436C5.6519 7.47036 6.0139 7.08736 6.3169 6.98136L6.3869 7.01936L6.3999 7.28436ZM6.9099 5.50636C6.8629 5.76836 6.8169 6.02936 6.7719 6.29136L6.6289 6.38136L6.5529 6.46436C6.4149 6.27036 6.3799 5.79436 6.4099 5.43236L6.9099 5.50636ZM7.4179 4.91636C7.4179 4.92636 7.4159 4.93436 7.4149 4.94236L7.2199 5.12936C7.0899 5.17936 7.0739 5.17736 6.9099 5.17136C6.9309 5.08636 6.9549 5.00136 6.9779 4.91636H7.4179ZM7.9279 3.88436L7.6999 4.39936L6.9099 4.34236L6.9129 4.30036C7.2379 4.15036 7.5229 3.97236 7.9269 3.88336L7.9279 3.88436ZM7.5159 5.22436L7.5999 5.17436L7.6729 5.43236L7.4179 5.38236L7.5159 5.22336V5.22436ZM8.1819 5.98736C7.8789 6.10536 7.4599 6.07236 7.2169 6.20736C7.19944 6.10399 7.18177 6.00066 7.1639 5.89736L7.3219 5.69036C7.5789 5.79036 7.8359 5.89236 8.0919 5.99336L8.1819 5.98736ZM7.5309 6.45136L7.1849 6.46436C7.1769 6.42836 7.1709 6.39236 7.1639 6.35536C7.4069 6.25636 7.8149 6.24736 8.1819 6.20636L7.7949 6.41936L7.5309 6.45136ZM8.4359 6.45136C8.1449 6.52436 7.8659 6.78136 7.6749 6.98136C7.6379 6.74736 8.0869 6.33536 8.3019 6.20636C8.3969 6.29136 8.4069 6.28236 8.4359 6.45136ZM8.9459 3.36836L8.9419 3.40836L8.6359 3.59336L8.1819 3.62636L8.1859 3.58636L8.9459 3.36836ZM8.5339 4.14236L8.4359 3.99736C8.6659 3.80436 9.1729 3.91036 9.4549 3.93936L8.5339 4.14236ZM10.8119 3.38236C11.2369 3.41736 11.6259 3.51736 11.9219 3.70236L11.9999 3.69736L11.9529 3.76336L11.5459 3.88336C11.3009 3.84936 11.0559 3.81336 10.8119 3.77836L9.1999 3.54936L9.2039 3.51636C9.73015 3.39137 10.2723 3.34653 10.8119 3.38336V3.38236ZM12.5049 3.24636L12.4149 3.36836C12.1709 3.3509 11.9376 3.26108 11.7449 3.11036L12.5089 3.20736L12.5049 3.24636ZM13.8609 4.20036L14.0719 4.12036L14.2909 4.30836C14.2609 4.52336 14.0539 4.69936 13.8949 4.90836L13.7729 4.91636C13.4409 4.36636 13.0219 3.76536 12.2869 3.55336L12.2549 3.48836L12.5519 3.36836C13.0509 3.54236 13.4669 3.80636 13.9299 3.95836C13.9899 4.10336 13.9709 4.05436 13.8599 4.20036H13.8609ZM14.4749 5.42336L14.4169 5.36636L14.2909 5.37536L14.5009 5.17536L14.4749 5.42336ZM14.6999 8.27136C15.0439 8.56936 15.1319 9.00136 14.9889 9.56136C14.8409 9.22936 14.6939 8.89636 14.5449 8.56436C14.5949 8.49036 14.6419 8.41636 14.6909 8.34236C14.6939 8.31836 14.6959 8.29436 14.6999 8.27136ZM14.7999 5.95136L14.7959 5.99936L14.6149 6.20636L14.5449 6.06936C14.6539 5.87436 14.5749 5.97936 14.7179 5.95936L14.7999 5.95136ZM15.0119 5.94836L15.8179 6.24736C15.8166 6.27411 15.8143 6.30079 15.8109 6.32736C15.7429 6.37436 15.6749 6.41936 15.6069 6.46436L14.7999 6.16636L14.8069 6.08536L15.0119 5.94836ZM16.5819 6.98136L16.1349 6.68436L16.0729 6.56436C16.2669 6.44436 16.2389 6.45036 16.4439 6.49036C16.4889 6.65436 16.5359 6.81836 16.5819 6.98136ZM16.8359 6.88336L16.7459 6.98136C16.6379 6.92536 16.6189 6.85436 16.5819 6.72236L16.8149 6.82436L16.8359 6.88336ZM16.6459 6.14436L16.5819 6.14936C16.6519 6.08236 16.7219 6.01536 16.7939 5.94936C16.7439 6.01436 16.6939 6.07936 16.6459 6.14436ZM17.8549 7.44236L17.7299 7.49736C17.5027 7.37008 17.2757 7.24241 17.0489 7.11436C16.9777 7.01782 16.9067 6.92115 16.8359 6.82436C17.1889 6.56436 17.2019 6.86636 17.5349 7.03136L17.8549 7.44236ZM18.1089 7.67036L17.8549 7.57736L18.0079 7.49736L18.1089 7.67036ZM17.7989 8.08636C17.8909 8.27136 17.8909 8.21936 18.1089 8.19136L17.7179 8.52936L17.3449 7.81736L17.3499 7.77336C17.6249 7.71436 17.7129 7.81336 17.9819 7.85336L18.0849 8.01936L17.7989 8.08636ZM17.8549 8.54936L18.3639 8.27136C18.2619 8.50136 18.1289 8.61936 17.9719 8.78736L17.8549 8.54936ZM18.8729 9.53436C18.7349 9.65336 18.6449 9.69136 18.3839 9.71336L18.5939 9.73636L18.5899 9.77336L17.8729 10.0774L17.8549 9.15736L18.3489 8.57236L18.4389 8.52936L18.8729 9.53436ZM18.6179 8.12236C20.0239 7.73036 19.7519 8.47636 19.1249 9.04536C18.9549 8.73836 18.7859 8.43036 18.6179 8.12236ZM19.8909 8.27136C19.3729 10.7054 19.2729 10.8384 17.4409 11.8844C17.4102 11.8352 17.3782 11.7868 17.3449 11.7394L17.4099 11.4674C18.6049 11.1274 19.2839 10.5014 19.2129 9.08436L19.8119 8.31436L19.8909 8.27136ZM19.9529 8.27136C19.9329 8.18736 19.9129 8.10336 19.8909 8.01936L20.0809 8.01336L19.9529 8.27136ZM16.8359 10.6384L16.8539 10.3694L16.8699 10.1394L17.0459 10.0804C17.0549 10.0804 17.0629 10.0784 17.0709 10.0774C17.1209 10.3824 17.0709 10.6074 16.9709 10.8524C16.8849 10.7974 16.8679 10.7744 16.8359 10.6384ZM15.8179 12.8964L15.8219 12.8514L16.1559 12.0524L16.2259 11.8844L16.8139 11.9244C16.8229 11.9684 16.8289 12.0114 16.8319 12.0524C16.8579 12.3564 16.7529 12.5994 16.6449 12.9164L15.8179 12.8964ZM16.0729 13.9324L16.0799 13.5324L16.0899 13.4324L16.5199 13.4644L16.5819 13.4594C16.4829 13.6224 16.3849 13.7854 16.2879 13.9494L16.0729 13.9324ZM15.8209 12.2624L15.8469 12.2494L16.0499 12.1444L16.0729 12.1424L16.0429 12.2494L15.9239 12.6584L15.8179 12.2944L15.8209 12.2624ZM15.4239 13.5474L15.3089 13.4324C15.4209 13.5104 15.3479 13.4344 15.4239 13.5474ZM14.7999 13.2404C14.9429 13.1504 15.0979 13.1784 15.3099 13.1804L15.2469 13.3874C15.0719 13.4574 15.0469 13.4314 14.8499 13.4104L14.7999 13.2404ZM15.1119 14.2064L15.3089 14.6724C15.1569 14.7754 15.0039 14.8774 14.8519 14.9814C14.7159 14.7944 14.8639 14.2714 15.1119 14.2064ZM14.6089 12.5864L14.5449 12.5914L14.6289 12.4004L14.6089 12.5864ZM15.3419 12.6584L15.3089 12.6374L15.4209 12.4014L15.4579 12.4004L15.5639 12.6484L15.3419 12.6584ZM17.1049 9.30336L17.0909 9.21636C17.1579 9.13436 17.2009 9.08336 17.3159 9.04636L17.3459 9.19836C17.2959 9.23136 17.2459 9.26336 17.1969 9.29736L17.1049 9.30336ZM17.0909 9.93336C17.0449 9.99436 16.9629 10.0284 16.9049 10.0774L16.8359 8.78736L17.0909 9.93336ZM16.6239 11.6634C16.7919 11.5694 16.8159 11.6564 16.8359 11.8834H16.3269L16.3359 11.8034L16.6239 11.6634ZM16.3739 10.9504L16.4889 10.8524L16.5819 11.0184L16.5389 11.1104L16.3269 11.0854L16.3739 10.9504ZM16.3269 11.6344L16.0619 11.8844L15.8889 11.8554L15.8189 11.8624C15.8589 11.7834 15.9009 11.7044 15.9419 11.6264L16.3269 11.6344ZM15.3669 11.4874C15.2609 11.4134 15.3369 11.4234 15.3169 11.3674L15.3669 11.4874ZM16.1689 10.3354L15.3089 9.88936C15.3489 9.29936 15.4209 8.62136 15.3629 8.01336C16.0259 8.25336 16.6209 9.33236 16.1689 10.3354ZM15.5639 10.3354C15.7749 10.4474 15.7639 10.5494 16.0569 10.6394C16.1079 10.8304 16.0299 10.9064 15.9079 11.1094L15.5959 11.0974C15.5319 10.7574 15.6019 10.5624 15.5639 10.3354ZM15.6219 12.0044C15.5149 11.9304 15.5919 11.9404 15.5719 11.8844L15.6219 12.0044ZM17.3449 9.52036L17.3479 9.47236L17.5779 9.30336C17.6179 9.56736 17.6029 10.0074 17.5429 10.3354C17.4069 10.2294 17.3819 9.78136 17.3449 9.52036ZM17.3449 10.3354C17.3969 10.2494 17.4489 10.1634 17.4989 10.0774L17.4089 10.3314L17.3449 10.3354ZM18.8299 9.56436L18.8729 9.56136C18.8849 10.5504 18.2749 10.7304 17.4729 11.1014L17.3449 11.1104L17.8449 10.0744L18.8299 9.56436ZM17.3199 7.63236C17.3279 7.65836 17.3369 7.68336 17.3439 7.70936L17.2809 7.75536L17.0899 7.49736L17.3199 7.63236ZM17.0899 8.06236L17.0969 8.01736C17.1156 8.01587 17.1342 8.01453 17.1529 8.01336L17.3449 8.27136C17.1969 8.20136 17.1729 8.18436 17.0899 8.06236ZM17.3439 8.72236L17.0009 9.04536L16.2639 7.97536L15.3079 7.14536L15.5179 6.98136C15.9809 7.18136 16.7909 7.56236 16.9539 8.03836C17.0069 8.19336 16.8239 8.32136 16.9479 8.45036C17.0959 8.60436 17.2439 8.49436 17.3449 8.72136L17.3439 8.72236ZM15.1959 10.3354L15.2739 10.3664L15.3079 11.1104L15.1889 11.0824C15.0769 10.9994 14.9989 10.6154 15.1009 10.4484L15.1959 10.3354ZM14.6319 11.6294L14.7139 11.6264L14.7989 11.8284L14.6689 11.8784L14.5439 11.8844C14.5739 11.7994 14.6039 11.7144 14.6319 11.6294ZM14.3999 15.7554L14.2899 15.3784C14.4469 15.3334 14.6029 15.2884 14.7599 15.2414L14.7999 15.2394C14.7978 15.251 14.7962 15.2626 14.7949 15.2744L14.3999 15.7554ZM14.0349 14.7234C14.0819 14.5714 14.1149 14.5484 14.1999 14.4644L14.2699 14.4924L14.2899 14.5584L14.1329 14.7124L14.0349 14.7224V14.7234ZM14.1549 14.9814L14.0349 14.8494L14.2899 14.7234L14.2239 14.9764L14.1549 14.9814ZM13.8869 16.1514C13.8509 16.1234 13.8169 16.0944 13.7809 16.0644L13.8589 16.0594L14.2519 15.7554L14.2899 16.0654L13.9889 16.2714L13.8869 16.1514ZM13.9069 19.1074C13.2939 19.1334 12.9269 18.9774 12.4269 18.9334L11.8539 17.8004L11.7439 17.6864C12.7059 17.5724 13.3109 17.1084 14.0239 16.7874C14.2759 17.0274 14.8469 18.2494 14.3439 18.7904C14.2239 18.9754 14.0899 18.9944 13.9069 19.1074ZM11.2749 17.8344L11.5049 17.8194C11.8519 18.0524 12.0879 18.4694 12.2539 18.8524L11.2349 18.5574C11.3109 18.2994 11.3429 18.0374 11.2749 17.8344ZM10.5429 16.8604L11.6909 16.5294L13.4949 16.7054L13.5269 16.7964C12.9899 17.0384 12.3789 17.2424 11.7629 17.5544C11.0959 17.6074 10.9349 17.3584 10.4729 17.1944L10.5429 16.8604ZM10.4719 18.0764L10.4949 17.8524L10.9339 17.8194C10.9699 18.0144 11.0079 18.1234 10.9539 18.3354L10.4719 18.0754V18.0764ZM9.9619 18.4804L10.1329 18.3864C10.3429 18.2474 10.4999 18.4324 10.7259 18.5054L10.6359 18.5934L9.9619 18.4804ZM10.4569 18.0774C10.4014 18.0527 10.3461 18.0277 10.2909 18.0024L10.2169 17.8194L10.4719 17.8354L10.4569 18.0774ZM9.7079 18.0774L9.9629 18.2964C9.9629 18.4314 9.9509 18.4164 9.9199 18.5934L9.7079 18.0774ZM9.0479 17.1104C9.2869 17.0374 9.6049 17.0534 9.9629 17.0454L9.6299 17.3034L8.9449 17.2364L9.0479 17.1104ZM8.4359 4.17736C8.9089 3.72536 10.0949 3.86036 10.3919 4.14736L10.4719 4.14036C10.0769 4.50936 9.4649 4.55136 9.0889 4.91636C8.7939 4.72036 8.5499 4.59436 8.4359 4.17736ZM11.0359 4.91636L11.2359 5.14336C11.0579 5.15336 10.8709 5.16436 10.6839 5.18036C10.2629 5.21636 9.8469 5.27936 9.5559 5.43036L9.5179 5.43236C9.49686 5.39938 9.47586 5.36638 9.4549 5.33336C9.93258 5.08278 10.4599 4.94138 10.9989 4.91936L11.0359 4.91636ZM12.0279 3.62636C12.3569 3.95636 12.8479 4.15236 13.0179 4.65836C12.3279 4.33736 11.2659 4.34236 10.7279 3.83136C11.2019 3.93236 11.6059 3.89436 12.0279 3.62636ZM12.2549 5.43236L13.1989 5.56236L13.2729 5.55636L12.5159 6.20636C12.3959 5.96736 12.3679 5.64336 12.2549 5.43236ZM13.4679 6.53636L13.2729 6.50636L13.5269 6.46436L13.4669 6.53636H13.4679ZM13.2729 5.91936L13.5059 5.69036L13.5269 5.94836L13.3579 5.91136L13.2729 5.91936ZM13.7349 14.4594L13.6229 14.4644L13.5269 14.3744L13.6009 14.2774L13.7809 14.2074L13.7349 14.4594ZM13.5319 14.9314C13.5619 14.8954 13.5939 14.8594 13.6259 14.8234L13.6339 14.7234L13.7819 14.9584L13.5269 14.9814L13.5319 14.9314ZM13.4309 15.7554L13.2729 15.5654L13.7819 15.4974L13.5389 15.7474L13.4309 15.7554ZM13.5269 16.5294L13.0179 16.4684L13.3779 16.2714L13.5269 16.5294ZM13.1699 15.8014L13.2729 15.8994L12.9039 15.9934L12.5089 16.0134L13.0589 15.7554L13.1699 15.8014ZM11.7459 4.65836C12.0429 4.66636 12.3569 4.74136 12.5089 4.91636C12.3039 4.89636 11.9349 4.92936 11.8419 4.77136L11.7459 4.65836ZM12.0039 5.69036C12.1489 5.81736 12.1999 5.96736 12.1739 6.20636C11.9499 6.12936 12.0079 5.88436 12.0039 5.69036ZM12.2539 7.31736L12.2629 7.27336C12.7699 7.16336 12.8789 7.33936 12.6479 7.49736C12.4479 7.46936 12.3569 7.39436 12.2539 7.31736ZM12.9069 13.9484L13.0179 13.9764C13.0164 13.9883 13.0151 14.0003 13.0139 14.0124L12.7639 14.2064L12.8679 13.9514L12.9069 13.9484ZM12.7669 7.65436L12.9569 7.49736L13.0179 7.75536L12.7639 7.69936L12.7659 7.65436H12.7669ZM13.5269 14.5544L12.9119 14.7154L12.7639 14.7224C12.7639 14.7144 12.7659 14.7054 12.7679 14.6974C12.9979 14.6514 13.1459 14.5754 13.2819 14.4644L13.4979 14.5044L13.5269 14.5544ZM13.0879 13.9484L13.0179 13.8054L13.1929 13.6904L13.2729 13.7334L13.1729 13.9414L13.0879 13.9484ZM11.4909 15.7334L11.7939 15.4974L12.7319 15.5774L12.7639 15.6474L12.1299 16.0134C11.8949 15.9744 11.6919 15.8704 11.5699 15.7274L11.4909 15.7334ZM11.0199 15.7554L11.4899 16.0134L10.7269 15.8784C10.8249 15.8384 10.9219 15.7964 11.0199 15.7554ZM10.9819 16.2824C10.9808 16.303 10.9798 16.3237 10.9789 16.3444L10.8339 16.4244L10.7269 16.4384L10.7309 16.3764C10.8419 16.2294 10.8229 16.2784 10.9809 16.2824H10.9819ZM9.7819 5.77936C9.75779 5.75348 9.73346 5.72781 9.7089 5.70236C9.9619 5.56436 10.3609 5.49836 10.7529 5.46736C11.0759 5.44036 11.3939 5.43736 11.6219 5.43236L11.7459 6.20636C11.4129 6.17036 11.0959 6.12636 10.7529 6.11136C10.4565 6.09667 10.1594 6.10737 9.8649 6.14336C9.83778 6.0219 9.81012 5.90057 9.7819 5.77936ZM10.1559 16.1344L10.2179 16.2444L10.1579 16.4754L9.4549 16.5294C9.5299 16.2994 9.6419 16.1884 9.7629 16.0134L10.1559 16.1344ZM9.2879 15.2394C8.9679 15.2214 8.5299 14.9874 8.4359 14.7234L9.4549 14.9824L9.2879 15.2394ZM9.6459 15.2254L9.4549 15.2394L9.4609 15.1774L9.6729 14.9814C9.6629 15.0624 9.6549 15.1434 9.6459 15.2254ZM8.9459 5.78836L9.2559 5.69036L9.4549 5.94036L9.2449 5.94836L8.9459 5.78836ZM8.9419 16.8684C8.9249 16.9244 8.9099 16.9814 8.8939 17.0384C8.86914 17.0397 8.84446 17.042 8.8199 17.0454C8.77703 16.9593 8.73403 16.8733 8.6909 16.7874L8.9459 16.8134L8.9419 16.8684ZM9.0829 15.7554L9.6769 15.8754L9.7089 15.9554L9.2479 16.5294L8.6909 16.4474L9.0829 15.7554ZM13.5269 7.66736L13.6419 7.49836L13.6839 7.49736L14.0039 7.57736L14.0359 7.62336L13.6789 7.75536C13.6283 7.72592 13.5776 7.69658 13.5269 7.66736ZM14.2159 6.83336L14.0359 6.72336C14.2189 6.79036 14.1139 6.71436 14.2159 6.83336ZM14.1579 8.01336L14.0359 7.90936L14.2909 7.75536L14.1579 8.01336ZM14.0359 9.81936L14.4319 9.91736C14.5389 9.95936 14.5359 9.97036 14.5449 10.0774C14.3749 10.0124 14.0909 9.96736 14.0359 9.81936ZM14.0759 9.11636L14.1299 9.04636L14.2909 9.30336L14.0359 9.25336L14.0759 9.11636ZM8.9189 17.6074L8.9459 17.6754L8.6029 17.8064L8.4359 17.8194L8.4399 17.7844L8.5569 17.6014C8.7189 17.5264 8.7229 17.5754 8.9189 17.6074ZM8.1819 4.65736C8.4039 4.82336 8.4619 5.02736 8.4269 5.69036C8.2809 5.50336 8.1919 5.10636 8.1819 4.65836V4.65736ZM8.3279 4.14236L8.3099 4.32936L8.1829 4.33836L8.3289 4.14236H8.3279ZM8.1819 4.40036C8.1749 4.46236 8.1699 4.52436 8.1619 4.58636L7.9269 4.54336L8.1209 4.40436L8.1809 4.40036H8.1819ZM8.1819 19.3684L8.3079 18.0544L9.1999 17.8194L8.2619 19.3204L8.1819 19.3684ZM8.2449 15.8364L8.3819 15.7554C8.5069 15.9034 8.3949 16.1164 8.2769 16.2714C8.1789 16.1794 8.1679 16.1214 8.1939 15.9124L8.2449 15.8364ZM7.4179 15.7104L7.7109 15.2394L8.1809 15.5154C8.0209 15.7674 7.8579 16.0194 7.6959 16.2714C7.5499 16.1414 7.4599 15.9504 7.4179 15.7114V15.7104ZM7.4179 17.7314L7.8879 17.3034L8.1089 17.3234L8.1819 17.4434C8.1619 17.5694 8.1439 17.6944 8.1259 17.8194L7.4179 17.7314ZM6.6549 17.3814L7.2149 17.0454L7.6409 17.1124L7.6729 17.1714L7.2239 17.5614C6.9999 17.5384 6.8509 17.4784 6.7339 17.3764L6.6539 17.3814H6.6549ZM6.5799 16.8824L6.7849 16.7874L6.8729 16.8064L6.9089 16.8484L6.3159 17.0454L6.1459 16.9854L6.5799 16.8824ZM5.8909 16.6404L6.0409 16.2774C6.3189 16.2414 6.3849 16.3784 6.5939 16.4654L6.6539 16.5574L6.3429 16.7704L6.0899 16.7874L5.8909 16.6404ZM5.3809 17.6994L5.7519 17.0454C5.9979 17.0454 6.0279 17.0654 6.1289 17.1954C6.1739 17.2714 6.1349 17.2304 6.0369 17.2474L6.0139 17.4724L6.3999 17.5324C6.3239 17.7214 6.3119 17.6964 6.1979 17.8164C5.8179 17.8364 5.6459 17.7644 5.3809 17.6994ZM4.9529 16.7874L5.5999 16.9824L5.6359 17.0594L5.2209 17.5614L4.6179 17.3634L4.9529 16.7874ZM2.4599 16.0894L2.4679 16.0124L2.8289 16.2904L2.8599 16.3644C2.1089 16.9444 3.2579 18.8344 4.5649 17.6094L5.1269 17.8354C4.9109 18.2204 4.5399 18.3724 4.1489 18.5904C3.2139 18.6684 1.9059 17.1414 2.4599 16.0894ZM3.3319 16.3534L3.3459 16.5284C3.2759 16.4754 3.2059 16.4244 3.1379 16.3714L3.0909 16.2704L3.3319 16.3534ZM4.6179 17.4494L4.1529 17.8094C3.2369 17.9054 2.8659 17.2714 2.8359 16.4924L3.0149 16.2764L3.0929 16.2704C3.5539 16.6334 3.9619 17.1874 4.5879 17.3704L4.6179 17.4494ZM3.7309 13.6894C3.6479 13.6294 3.6429 13.5994 3.6009 13.4974L3.7749 12.8354L3.9779 12.6574L4.1089 12.8494L3.7309 13.6894ZM3.6009 13.9124L4.0019 12.9634L4.0839 12.9154C4.2689 13.2414 4.5369 13.3894 4.6179 13.8324L4.0139 14.4634C3.82608 14.3234 3.68239 14.1325 3.5999 13.9134L3.6009 13.9124ZM4.3639 14.7024L4.8739 14.2054L5.1269 14.7224C4.87259 14.7147 4.61826 14.708 4.3639 14.7024ZM5.6359 9.48736C5.3949 10.0024 5.0739 10.3524 4.8819 10.8514C4.7979 10.3984 5.3039 9.74736 5.4669 9.34736L5.5449 9.30236L5.6359 9.48736ZM5.6359 8.06736C6.0149 7.95036 6.2689 7.73636 6.5399 7.49636L6.6549 7.84036L6.3329 8.27036L5.6359 8.06736ZM6.9089 8.09436L6.7709 8.27036L6.6549 8.25036L6.6569 8.22236L6.8889 8.01236L6.9089 8.09436ZM6.7089 6.98236L6.7489 6.98036L6.9089 7.31736L6.8489 7.49636C6.6159 7.37436 6.6249 7.22936 6.7089 6.98236ZM6.6609 14.4634L6.8959 14.6324L6.6549 14.5264C6.65625 14.5053 6.65825 14.4843 6.6609 14.4634ZM6.6569 14.7224L6.9089 14.8314C6.9074 14.8413 6.90606 14.8513 6.9049 14.8614L6.3649 15.2384C6.2099 15.1684 6.1909 15.0294 6.1449 14.8784L6.1499 14.8464L6.6569 14.7224ZM5.9039 14.2054L6.1459 14.3034L6.0159 14.3784L5.8909 14.3924L5.9039 14.2054ZM5.8909 9.04536C6.1969 9.13136 6.0999 9.07336 6.1129 9.30236C5.9729 9.22036 5.9629 9.18236 5.8909 9.04536ZM5.8909 13.6544L5.9119 13.4314C6.0309 13.5144 6.0719 13.5634 6.1459 13.6894C6.06092 13.6775 5.97592 13.6658 5.8909 13.6544ZM6.4009 10.4314C6.3049 10.5544 6.3089 10.5214 6.1459 10.5924L6.2569 10.3344L6.4009 10.4314ZM6.4009 9.39336L6.2409 9.56036C6.0809 9.47036 6.1559 9.50636 6.2279 9.33936L6.3229 9.30236L6.4009 9.39336ZM6.3799 8.95436L6.1459 8.78636C6.3259 8.85536 6.2839 8.81336 6.3799 8.95436ZM5.8909 13.6894L6.1459 13.8924C6.0159 13.8894 5.9459 13.8614 5.8909 13.6894ZM6.6549 13.6794L6.5509 13.6894L6.4619 13.5254L6.3999 13.4454L6.5379 13.4314C6.5769 13.5144 6.6149 13.5974 6.6549 13.6794ZM6.5149 8.90136L6.3999 8.78736C6.5119 8.86536 6.4379 8.78936 6.5139 8.90236L6.5149 8.90136ZM6.5299 13.1514L6.3999 12.8814L6.4549 12.6594L6.4869 12.6574L6.6549 13.1734C6.61324 13.166 6.57158 13.1586 6.5299 13.1514ZM5.8629 16.1544L5.8909 16.1884L5.7999 16.5294C5.6928 16.4849 5.59849 16.4144 5.5255 16.3243C5.45251 16.2342 5.40315 16.1273 5.3819 16.0134L5.8629 16.1554V16.1544ZM5.1269 16.5294L5.3819 16.7554C5.2189 16.6834 5.2089 16.6864 5.1269 16.5294ZM5.5669 14.2414L5.5969 14.4644L5.3819 14.2064L5.5669 14.2414ZM5.3149 15.4484L5.1269 14.9814C5.3499 15.0664 5.5239 15.3214 5.6369 15.4974L5.3149 15.4484ZM5.5149 10.8544L5.5779 10.8524L5.3919 11.1104C5.3619 11.0464 5.3989 10.9854 5.5019 10.9104L5.5149 10.8544ZM5.3819 13.0724L5.3309 13.1744L5.1849 13.0614C5.16554 13.0204 5.14621 12.9794 5.1269 12.9384L5.3269 12.9164L5.3819 13.0724ZM3.5999 15.2394C4.1099 15.5714 4.9769 15.8794 5.1269 16.5294C4.52223 16.2274 3.99864 15.7851 3.5999 15.2394ZM4.9229 14.9894L5.1269 15.2394L4.6179 14.9814L4.9229 14.9894ZM6.7869 15.7554L6.3999 15.3654L7.0769 14.7234L7.1639 15.4304L6.7869 15.7554ZM7.1639 16.1864L7.2309 16.0184L7.3209 16.0134L7.4179 16.2714L7.1639 16.1864ZM7.5069 15.2394L7.4179 14.9814L7.6029 15.0154L7.5069 15.2394ZM7.1639 6.54936L7.1659 6.52636C7.2499 6.50636 7.3339 6.48636 7.4179 6.46436L7.2419 6.72236L7.1639 6.54936ZM4.5969 11.8844L4.3639 11.3684C4.6629 11.4334 4.6139 11.6464 4.5969 11.8844ZM3.9739 12.1424C3.7559 11.9914 3.6169 11.6904 3.5999 11.3684C4.0469 11.4734 4.0219 11.6494 4.1099 12.0574L3.9739 12.1424ZM3.7109 10.7954C3.3859 10.4884 3.8589 9.26036 4.0669 8.97736C4.1769 8.83836 4.3149 8.84136 4.4969 8.78736L4.6179 8.81836C4.3119 9.36036 4.1059 10.0984 4.0329 10.8524L3.7109 10.7954ZM3.2359 14.9814L3.3909 15.2424L3.2519 15.5674L3.1719 15.6524C3.2859 15.6684 3.3119 15.5704 3.4819 15.4314C3.8119 15.9664 4.3159 16.4784 4.8719 16.7694L4.5689 17.3034L3.6489 16.7114C3.5439 16.5164 3.6889 16.2924 3.5199 16.1734C3.3669 16.0654 3.1699 16.2214 3.0139 16.1744L2.5819 15.7784C2.7089 15.4944 2.8309 15.2164 3.0819 15.0714L3.2359 14.9814ZM2.3559 12.1354C2.3906 11.878 2.44036 11.6229 2.5049 11.3714L2.5389 11.3684L2.6719 12.1354L2.7419 12.5354C2.9419 13.0934 3.1439 13.6504 3.3459 14.2064C2.8619 13.9424 2.5629 13.3314 2.6059 12.5094C2.4899 12.7744 2.5859 13.1914 2.6239 13.4254C2.3269 13.1734 2.2899 12.6724 2.3559 12.1354ZM1.9139 12.4004C1.86765 12.3027 1.83856 12.1979 1.8279 12.0904C1.81365 11.9456 1.815 11.7998 1.8319 11.6554L1.8759 11.5634L2.0729 11.3684L1.9619 12.0894L1.9139 12.3994V12.4004ZM19.6359 14.9804L19.1269 14.7844L19.6209 14.7234L19.6359 14.9804ZM6.1659 19.1804L6.2989 19.1104L6.1449 19.3674L6.1649 19.1814L6.1659 19.1804ZM2.3269 10.3364L2.1099 10.3164C1.8399 10.2274 1.5869 9.91236 1.5639 9.56236C1.9769 9.59936 2.1169 9.79536 2.3209 10.0344C2.3229 10.1344 2.3259 10.2354 2.3269 10.3364ZM2.2969 10.3154C2.3269 9.75836 1.9019 9.41036 1.3499 9.42536C1.4439 8.64336 2.1239 8.24336 2.7299 7.98036L2.8469 7.97136C2.7459 8.95336 2.8229 9.79936 2.4559 10.6494C2.1849 11.2754 1.2239 11.2634 1.2759 12.2294L1.2829 12.3094C1.4199 13.5934 2.8159 13.8544 3.0089 14.9834C0.938899 16.0364 3.4619 20.4614 5.0989 17.8624C5.3929 17.9044 5.6539 18.0374 6.0189 17.9094C6.1889 17.8154 6.2219 17.7394 6.2879 17.5434L6.8729 17.8464L6.9029 17.9204C6.3669 18.3364 5.9889 18.9074 5.4129 19.2974L5.4679 19.1394L5.3179 19.1124L5.2349 19.1574L5.1599 19.5074C5.4889 19.8434 6.4859 18.6284 6.7779 18.3904C6.6129 18.9674 6.2049 19.2644 5.9779 19.7924L6.0479 19.8644C6.4779 19.5564 7.0049 18.6844 7.0849 18.0214L7.7289 18.1284C6.9219 19.2194 4.8489 21.6194 3.7589 22.2604C3.9249 21.7394 4.1889 21.3414 4.3229 20.9134L4.2449 20.9194C4.22165 20.8953 4.19832 20.8713 4.1749 20.8474C3.9099 21.3694 3.4729 21.7364 3.3949 22.4404C3.4415 22.5101 3.50047 22.5708 3.5689 22.6194C4.8649 22.4034 7.0289 19.1464 8.0629 18.2564C7.7829 21.0664 6.2769 21.5044 4.9709 23.2064C6.1579 22.6144 6.8779 21.1044 7.8929 20.2664C7.7809 21.4394 7.5019 24.0624 6.7999 24.5294L6.9159 24.5204C7.7039 24.0304 7.7499 22.0154 8.0129 20.9854L8.1249 19.9024L9.2499 18.3224L9.3319 18.2774C9.4579 18.6724 10.0279 19.1014 10.6449 18.9864L11.0879 18.8004L12.1999 19.2164C12.3459 20.8164 12.2899 21.7134 11.2769 22.9314C12.3119 22.4024 12.6919 20.3644 12.3469 19.2824C14.7539 19.5614 14.6569 18.7494 14.2009 16.9964L14.6239 17.0034C14.5459 16.8864 14.3349 16.9734 14.1739 16.8834C14.1009 16.8364 14.1149 16.8454 14.0699 16.7754C14.6419 16.1304 16.0199 16.7714 15.7299 17.8424C16.1259 16.9544 15.2509 16.1644 14.4079 16.4824C14.7679 16.0554 15.2039 15.7044 15.4319 15.1394L15.5139 15.0954L17.4939 17.1754L17.6109 17.1664L17.7009 17.0444C17.0709 16.2984 16.4419 15.5514 15.8139 14.8044L16.0159 14.7124C16.0605 14.6663 16.1154 14.6313 16.176 14.6103C16.2366 14.5893 16.3013 14.5828 16.3649 14.5914C16.3315 14.5748 16.2982 14.5581 16.2649 14.5414C17.2759 14.6424 18.5679 15.4854 19.6229 15.2134C19.7199 15.0444 19.7249 14.9534 19.6659 14.7884C20.7899 14.8164 22.8119 14.4404 23.4559 13.8944C21.7259 14.2574 19.7779 14.3804 18.1899 14.1684L16.7829 14.0034L16.7039 14.0094L17.0829 13.3294C18.2429 13.3074 21.2849 13.2784 21.8999 12.5504L21.7639 12.3684L21.2339 12.2924C21.1968 12.3515 21.1761 12.4195 21.1739 12.4894L21.5939 12.5344C20.6819 12.7644 18.1419 13.2494 17.3129 12.9664C17.2259 12.8604 17.2899 12.4924 17.2939 12.2274C17.2954 12.1799 17.2934 12.1325 17.2879 12.0854C18.4799 11.7294 19.3649 10.9274 19.7279 9.71736C19.9349 9.02436 19.7979 8.11436 20.2459 7.68236C20.5319 7.70736 20.5899 7.82836 20.7999 7.91036C20.6889 7.75636 20.5299 7.67036 20.3309 7.60036L19.9579 7.85736C19.6169 7.98936 19.2599 7.64436 18.6809 7.91336C18.2109 7.51136 17.9459 6.87636 17.3109 6.63336L17.2459 6.52336L18.0159 5.77436C17.7639 5.98536 17.5069 6.23436 17.2499 6.48436L16.7339 6.25336L16.7039 6.17836C17.2919 5.76236 17.8139 5.60836 18.4829 5.74036C18.5139 5.80236 18.5469 5.86336 18.5789 5.92536C18.5479 5.97836 18.5199 5.99336 18.4929 6.00836L18.2679 5.94836C18.3649 6.00536 18.4659 6.02336 18.5669 6.04136L18.6519 5.95836L18.6649 5.84236C18.5189 5.71236 18.4739 5.61836 18.1869 5.60836L18.3239 5.40636C17.9959 5.63236 17.3299 5.69236 17.0039 5.88836L17.7579 5.29436L17.8479 5.17336L16.4529 6.00536C16.1549 5.98536 15.8379 5.84536 15.6769 5.67836C15.6512 5.68033 15.6256 5.68233 15.5999 5.68436L17.2559 4.56436L17.2289 4.45136C16.6009 4.81736 15.9719 5.18336 15.3449 5.55036L14.7429 5.40236L14.7989 4.86136L19.1159 1.47136L19.1929 1.46536L19.1319 1.31636C18.9719 1.24036 18.3149 1.77336 18.0669 1.93236C17.1109 2.54536 16.2659 3.30836 15.3259 3.86236C15.7139 3.36936 16.4239 2.87836 16.5419 2.16036L16.3519 2.13636L16.0559 2.38836L16.3779 2.24836C16.1699 2.88136 15.2279 4.01136 14.6959 4.36936L14.6339 4.22036C14.9799 3.63836 15.3209 2.85536 15.1609 2.10836L14.8709 1.93836L14.5599 1.96136C14.7589 2.04036 14.8939 2.05936 15.0399 2.15636C15.1329 2.88036 14.7769 3.37036 14.5849 3.95636L14.5029 4.00036C14.3749 3.76336 14.3829 3.64936 14.1199 3.60636L14.0969 3.45436L14.2769 3.21036L14.4009 3.12436C14.4429 3.20436 14.4449 3.17536 14.4579 3.31236C14.4948 3.25348 14.5151 3.1858 14.5169 3.11636L14.3699 3.05036L13.9809 3.46236C13.6559 3.24536 13.2979 3.01736 12.8409 2.93236C13.0999 2.39536 13.8869 1.53236 13.4809 0.851359C12.9849 0.0233586 11.2919 0.977359 10.6719 1.63436C10.6 1.70762 10.5375 1.78959 10.4859 1.87836C10.5473 1.82955 10.6093 1.78155 10.6719 1.73436C11.2839 1.27836 12.9129 0.186359 13.2659 1.05936C13.6359 1.54636 12.9269 2.48336 12.7339 2.86436C12.0739 2.79736 11.3839 2.73436 10.6739 2.74836C9.92659 2.75487 9.18456 2.87422 8.4729 3.10236C8.1129 3.22136 6.5769 4.14136 6.5179 4.12936L5.8179 3.45136L4.3539 2.71636L4.3459 2.79336L4.2599 2.87636L6.1359 4.46436L5.8499 4.63936C5.0779 4.05436 4.5459 3.69936 3.3969 3.40036L3.2029 3.41536C3.8739 3.87736 4.5499 4.30036 5.2249 4.72436L5.3599 4.90636C4.8779 5.10936 4.6739 5.53136 4.2669 5.79336C3.6309 5.48936 3.0419 5.21336 2.2709 4.98036L2.2169 5.13836L3.6609 6.06836L3.7389 6.06236L3.4899 6.23436C3.3749 6.62136 3.1499 7.07036 2.9619 7.61636C2.2419 8.20236 1.3089 8.16736 1.1639 9.36136C0.933898 9.42436 0.771898 9.44436 0.561898 9.59836L0.545898 9.75336C0.677898 9.93736 1.8469 10.4324 2.1259 10.4804L2.2979 10.3144L2.2969 10.3154ZM10.8369 2.05936L10.9439 2.07936L10.8009 2.06136C10.7759 2.06136 10.7509 2.06336 10.7269 2.06436C10.8399 1.85436 11.1719 1.80236 11.4909 1.82536L11.4689 1.97736L10.8449 2.00836L10.8369 2.05936ZM11.2829 2.33636L11.5829 2.23836C11.7129 2.02236 11.7869 1.79336 11.7209 1.58436C11.4119 1.52336 11.2339 1.59836 10.9449 1.72036C10.8923 1.80587 10.84 1.89153 10.7879 1.97736L10.7279 2.07736C10.7464 2.09882 10.7664 2.11888 10.7879 2.13736C10.8859 2.21736 11.0039 2.24536 11.2209 2.22736C11.2809 2.32936 11.2109 2.28436 11.1039 2.31236L11.2839 2.33636H11.2829ZM18.6859 4.65936L18.3639 4.71936L18.5619 4.70536L18.7889 4.80336L18.4449 5.43336C18.6219 5.22436 18.7979 5.07636 18.8729 4.75936L18.6859 4.65936ZM16.8359 14.7244C16.7559 14.5814 16.6689 14.4874 16.5819 14.4654C16.6589 14.5384 16.7479 14.6244 16.8359 14.7244ZM15.8179 17.8204L15.5639 17.9684L15.7589 17.9504L15.8189 17.8204H15.8179ZM16.8359 14.7244C17.0949 15.0164 17.2889 15.5764 17.2329 16.0144C17.5269 15.3794 17.1919 14.9834 16.8359 14.7244Z" fill="white"/>
</g>
<defs>
<clipPath id="clip0_20_60">
<rect width="24" height="24" fill="white" transform="translate(0 0.529297)"/>
</clipPath>
</defs>
</svg>
