<?xml version="1.0" standalone="no"?>
<!DOCTYPE svg PUBLIC "-//W3C//DTD SVG 20010904//EN"
 "http://www.w3.org/TR/2001/REC-SVG-20010904/DTD/svg10.dtd">
<svg version="1.0" xmlns="http://www.w3.org/2000/svg"
 width="480.000000pt" height="252.000000pt" viewBox="0 0 480.000000 252.000000"
 preserveAspectRatio="xMidYMid meet">

<g transform="translate(0.000000,252.000000) scale(0.100000,-0.100000)"
fill="#000000" stroke="none">
<path d="M1040 1995 c-10 -12 -9 -16 6 -21 33 -12 65 -46 54 -59 -6 -7 -6 -23
-1 -43 10 -33 1 -47 -47 -71 -12 -7 -20 -16 -17 -22 9 -14 35 -11 35 4 0 7 13
26 29 41 24 23 32 26 49 17 30 -16 53 -13 77 9 12 11 42 24 66 28 l44 8 -44 7
c-27 5 -50 16 -58 27 -8 11 -18 20 -24 20 -5 0 0 -9 11 -20 19 -19 18 -40 -3
-67 -15 -20 -54 -15 -71 8 -16 23 -12 47 12 67 9 6 11 12 6 12 -6 0 -15 -5
-22 -12 -9 -9 -19 -5 -42 17 -16 16 -30 34 -30 41 0 20 -17 25 -30 9z"/>
<path d="M686 1840 c-275 -58 -424 -128 -547 -257 -163 -171 -181 -397 -48
-594 72 -107 190 -189 344 -241 63 -21 88 -23 240 -23 158 1 176 2 250 27 158
53 285 154 348 277 19 36 38 76 42 89 l6 22 -312 0 -312 0 -43 -36 c-24 -19
-44 -42 -44 -49 0 -8 -9 -19 -20 -25 -19 -10 -20 -8 -20 55 l0 65 58 0 c59 0
82 11 82 41 0 9 9 19 20 22 17 4 20 14 20 55 0 46 2 51 30 62 41 17 60 46 60
91 0 41 -39 89 -71 89 -16 0 -19 8 -19 56 0 47 -3 57 -20 61 -11 3 -20 13 -20
23 0 34 -24 41 -136 38 l-109 -3 -3 -27 c-2 -16 -10 -28 -17 -28 -8 0 -18 -6
-22 -14 -4 -8 -17 -15 -28 -18 -19 -3 -20 -12 -23 -240 l-2 -236 61 -73 c56
-67 60 -74 40 -77 -37 -6 -129 48 -181 105 -109 119 -143 271 -91 406 55 143
257 274 541 352 101 28 71 31 -54 5z m4 -247 l0 -88 -110 3 -110 3 0 78 c0 43
3 81 7 84 3 4 53 7 110 7 l103 0 0 -87z m-230 -179 c0 -152 -3 -195 -12 -192
-10 4 -14 52 -16 189 -3 186 0 215 18 204 6 -4 10 -81 10 -201z m275 8 c0
-148 -3 -192 -12 -192 -10 0 -13 45 -13 196 0 150 3 195 12 192 9 -3 13 -54
13 -196z m-315 -23 c0 -172 1 -181 20 -186 11 -3 20 -13 20 -22 0 -27 21 -41
62 -41 l38 0 0 -67 c0 -65 -2 -69 -30 -85 l-29 -16 -55 67 -56 68 0 232 c0
199 2 231 15 231 13 0 15 -27 15 -181z m385 76 c15 -14 25 -36 25 -53 0 -34
-31 -77 -60 -85 -19 -5 -20 -1 -20 79 0 94 10 105 55 59z m-115 -65 l0 -81
-107 3 -108 3 -3 78 -3 77 111 0 110 0 0 -80z m0 -165 l0 -75 -110 0 -110 0 0
75 0 75 110 0 110 0 0 -75z m80 -195 c0 -4 -18 -21 -39 -38 l-40 -32 -32 41
-33 42 39 35 39 36 33 -39 c18 -21 33 -41 33 -45z m-126 -88 l-27 -24 -26 27
-26 26 29 26 30 25 23 -28 23 -29 -26 -23z m-34 -43 c0 -4 -16 -21 -36 -39
l-36 -31 -25 23 c-48 45 -49 58 -7 94 l39 33 32 -37 c18 -20 32 -40 33 -43z"/>
<path d="M1858 1733 l-3 -38 -58 -7 c-78 -10 -139 -39 -168 -79 -21 -30 -24
-47 -27 -139 -2 -94 0 -109 20 -145 28 -49 90 -82 174 -93 l59 -7 3 -37 3 -38
54 0 54 0 3 38 c3 36 4 37 53 43 164 21 218 78 217 229 0 86 -12 123 -50 163
-34 36 -80 55 -151 64 -61 7 -71 14 -71 56 0 26 -2 27 -54 27 l-55 0 -3 -37z
m-3 -273 l0 -135 -40 3 c-22 2 -50 10 -62 18 -31 20 -47 81 -39 147 8 61 27
85 78 97 64 16 63 18 63 -130z m197 130 c55 -16 68 -41 68 -133 0 -68 -3 -81
-23 -101 -23 -23 -99 -42 -118 -30 -10 6 -12 251 -2 267 6 10 31 9 75 -3z"/>
<path d="M2480 1663 c-39 -98 -180 -497 -180 -509 0 -3 28 -4 62 -2 l62 3 22
70 22 70 140 3 141 3 27 -75 28 -74 63 -4 c35 -2 63 1 63 6 0 6 -19 57 -42
115 -22 58 -71 194 -108 301 l-68 195 -94 3 -95 3 -43 -108z m188 -121 c23
-70 42 -131 42 -135 0 -4 -47 -7 -105 -7 -58 0 -105 1 -105 3 0 6 90 250 96
258 16 26 34 -4 72 -119z"/>
<path d="M3050 1460 l0 -310 60 0 60 0 0 145 c0 139 1 145 20 145 71 0 149
-78 206 -205 l38 -85 68 0 67 0 -13 38 c-44 124 -121 242 -181 278 l-45 26 58
66 c54 62 138 170 156 200 5 9 -9 12 -62 12 l-69 0 -65 -87 c-71 -94 -165
-203 -176 -203 -4 0 -6 65 -4 145 l3 145 -60 0 -61 0 0 -310z"/>
<path d="M3690 1460 l0 -310 225 0 225 0 0 50 0 50 -165 0 -166 0 3 87 3 86
115 1 115 1 3 48 3 47 -120 0 -121 0 0 75 c0 53 4 75 13 75 6 1 81 1 165 0
l152 -1 0 51 0 50 -225 0 -225 0 0 -310z"/>
<path d="M4392 1627 c-18 -223 -58 -348 -117 -375 -18 -8 -25 -18 -22 -30 3
-9 8 -34 12 -55 6 -36 8 -38 33 -32 101 25 172 177 203 434 l12 101 89 0 88 0
0 -260 0 -260 55 0 55 0 0 310 0 310 -198 0 -198 0 -12 -143z"/>
<path d="M927 1492 c-20 -4 -22 -18 -4 -26 9 -5 9 -7 -1 -12 -10 -5 -10 -9 -1
-21 10 -11 10 -16 0 -23 -11 -6 -11 -8 0 -12 12 -4 12 -7 1 -21 -12 -14 -10
-17 11 -22 64 -17 363 35 382 65 7 11 -25 25 -107 46 -57 15 -248 32 -281 26z"/>
<path d="M1602 988 c-17 -17 -15 -73 2 -87 8 -7 30 -11 48 -9 33 3 33 4 33 53
0 50 0 50 -35 53 -19 2 -41 -3 -48 -10z m73 -28 c12 -37 -24 -72 -51 -49 -19
16 -17 56 3 67 21 12 41 5 48 -18z"/>
<path d="M1730 945 c0 -30 5 -55 10 -55 6 0 10 20 10 45 0 41 2 45 24 45 22 0
25 -5 29 -47 3 -47 3 -47 5 10 l2 57 -40 0 -40 0 0 -55z"/>
<path d="M1850 945 l0 -55 39 0 c30 0 41 5 46 19 9 31 -5 51 -36 51 -22 0 -29
5 -29 20 0 11 -4 20 -10 20 -5 0 -10 -25 -10 -55z m70 -19 c0 -16 -27 -29 -41
-20 -19 11 -9 34 16 34 15 0 25 -6 25 -14z"/>
<path d="M1950 945 c0 -30 5 -55 10 -55 6 0 10 25 10 55 0 30 -4 55 -10 55 -5
0 -10 -25 -10 -55z"/>
<path d="M2000 990 c0 -5 7 -10 15 -10 11 0 15 -12 15 -45 0 -25 5 -45 10 -45
6 0 10 20 10 45 0 38 3 45 20 45 11 0 20 5 20 10 0 6 -20 10 -45 10 -25 0 -45
-4 -45 -10z"/>
<path d="M2120 945 c0 -30 5 -55 10 -55 6 0 10 11 10 25 0 20 5 25 25 25 20 0
25 -5 25 -25 0 -14 5 -25 10 -25 6 0 10 22 10 49 0 28 -4 53 -10 56 -5 3 -10
-3 -10 -14 0 -16 -6 -21 -25 -21 -18 0 -25 5 -25 20 0 11 -4 20 -10 20 -5 0
-10 -25 -10 -55z"/>
<path d="M2247 993 c-9 -8 -9 -66 -1 -87 7 -19 64 -22 82 -4 7 7 12 26 12 43
0 17 -5 36 -12 43 -13 13 -70 17 -81 5z m57 -9 c21 -8 22 -70 1 -78 -28 -10
-45 5 -45 39 0 18 6 36 13 38 6 3 13 6 14 6 1 1 8 -2 17 -5z"/>
<path d="M2370 945 l0 -55 41 0 c24 0 38 4 34 10 -3 6 -17 10 -31 10 -15 0
-24 6 -24 15 0 8 9 15 20 15 11 0 20 5 20 10 0 6 -9 10 -20 10 -11 0 -20 5
-20 10 0 6 14 10 30 10 17 0 30 5 30 10 0 6 -18 10 -40 10 l-40 0 0 -55z"/>
<path d="M2520 945 c0 -30 5 -55 10 -55 6 0 10 11 10 25 0 14 5 25 10 25 6 0
16 -11 22 -25 12 -26 28 -34 28 -13 0 6 -7 19 -16 29 -14 16 -14 20 1 43 23
34 2 34 -24 0 l-21 -27 0 27 c0 14 -4 26 -10 26 -5 0 -10 -25 -10 -55z"/>
<path d="M2630 976 c-5 -13 -5 -37 -1 -53 6 -23 14 -29 41 -31 39 -4 60 16 60
58 0 35 -17 50 -57 50 -26 0 -36 -5 -43 -24z m68 2 c22 -22 8 -78 -19 -78 -13
0 -39 31 -39 45 0 14 26 45 39 45 4 0 12 -5 19 -12z"/>
<path d="M2760 945 c0 -30 5 -55 10 -55 6 0 10 11 10 25 0 20 5 25 25 25 20 0
25 -5 25 -25 0 -14 5 -25 10 -25 6 0 10 25 10 55 0 30 -4 55 -10 55 -5 0 -10
-9 -10 -20 0 -15 -7 -20 -25 -20 -18 0 -25 5 -25 20 0 11 -4 20 -10 20 -5 0
-10 -25 -10 -55z"/>
<path d="M2892 988 c-7 -7 -12 -26 -12 -43 0 -17 5 -36 12 -43 14 -14 68 -16
68 -2 0 5 -7 7 -15 4 -23 -9 -45 15 -45 47 0 26 4 29 30 29 17 0 30 5 30 10 0
14 -54 12 -68 -2z"/>
<path d="M2980 990 c0 -5 9 -10 20 -10 17 0 20 -7 20 -45 0 -25 5 -45 10 -45
6 0 10 20 10 45 0 33 4 45 14 45 8 0 18 5 21 10 4 6 -13 10 -44 10 -28 0 -51
-4 -51 -10z"/>
<path d="M3100 946 c0 -55 13 -75 23 -37 3 12 15 21 33 23 25 3 29 7 29 33 0
28 -3 30 -42 33 l-43 3 0 -55z m68 17 c-2 -10 -13 -19 -26 -21 -17 -3 -22 2
-22 17 0 16 6 21 26 21 19 0 25 -5 22 -17z"/>
<path d="M3210 995 c0 -4 7 -20 16 -37 9 -17 13 -39 11 -50 -9 -32 16 -15 40
28 24 42 29 64 13 64 -5 0 -12 -11 -16 -25 -3 -14 -9 -25 -13 -25 -4 0 -13 11
-19 25 -10 22 -32 35 -32 20z"/>
<path d="M3330 945 c0 -30 5 -55 10 -55 6 0 10 11 10 25 0 33 13 32 38 -2 11
-16 24 -25 28 -20 4 4 -2 20 -13 36 -20 26 -20 29 -5 44 9 9 13 20 8 24 -4 4
-18 -6 -31 -22 l-24 -30 -1 28 c0 15 -4 27 -10 27 -5 0 -10 -25 -10 -55z"/>
<path d="M3440 990 c0 -5 9 -10 20 -10 17 0 20 -7 20 -45 0 -25 5 -45 10 -45
6 0 10 20 10 45 0 33 4 45 15 45 8 0 15 5 15 10 0 6 -20 10 -45 10 -25 0 -45
-4 -45 -10z"/>
<path d="M3564 986 c-3 -8 -4 -31 -2 -52 3 -36 6 -39 36 -42 18 -2 40 2 48 9
17 14 19 70 2 87 -17 17 -77 15 -84 -2z m76 -40 c0 -29 -22 -49 -44 -40 -19 7
-22 70 -3 77 21 8 47 -13 47 -37z"/>
<path d="M3690 945 c0 -30 5 -55 10 -55 6 0 10 9 10 20 0 15 7 20 29 20 35 0
45 12 37 46 -5 20 -12 24 -46 24 l-40 0 0 -55z m65 15 c0 -8 -10 -16 -22 -18
-18 -3 -23 2 -23 18 0 16 5 21 23 18 12 -2 22 -10 22 -18z"/>
<path d="M3814 986 c-3 -8 -4 -31 -2 -52 3 -37 5 -39 42 -42 25 -2 36 0 31 7
-3 6 -10 9 -15 6 -18 -11 -50 15 -50 40 0 25 26 46 47 38 6 -2 14 1 18 6 4 7
-7 11 -30 11 -21 0 -38 -6 -41 -14z"/>
<path d="M3910 945 c0 -30 5 -55 10 -55 6 0 10 11 10 25 0 14 6 25 13 25 8 0
20 -11 27 -25 7 -14 17 -25 22 -25 12 0 10 13 -8 38 -14 21 -14 25 0 47 22 34
1 32 -29 -2 l-24 -28 -1 28 c0 15 -4 27 -10 27 -5 0 -10 -25 -10 -55z"/>
<path d="M4032 988 c-16 -16 -15 -60 1 -82 9 -12 23 -17 47 -14 27 2 35 8 41
31 13 47 -5 77 -44 77 -18 0 -38 -5 -45 -12z m70 -20 c14 -40 -21 -80 -48 -57
-15 12 -19 51 -7 62 11 12 51 8 55 -5z"/>
<path d="M4160 945 l0 -55 41 0 c24 0 38 4 34 10 -3 6 -20 10 -36 10 -35 0
-36 23 -1 28 30 5 28 22 -3 22 -14 0 -25 5 -25 10 0 6 13 10 29 10 17 0 33 5
36 10 4 6 -10 10 -34 10 l-41 0 0 -55z"/>
<path d="M4300 945 l0 -55 40 0 c28 0 43 5 47 16 9 24 -10 49 -41 52 -36 5
-33 22 4 22 17 0 30 5 30 10 0 6 -18 10 -40 10 l-40 0 0 -55z m70 -19 c0 -16
-27 -29 -41 -20 -19 11 -9 34 16 34 15 0 25 -6 25 -14z"/>
<path d="M4420 945 c0 -30 5 -55 10 -55 6 0 10 11 10 25 0 15 6 25 14 25 8 0
17 -11 20 -25 5 -19 13 -25 35 -25 30 0 41 14 41 55 0 41 -11 55 -42 55 -21 0
-31 -6 -35 -20 -3 -11 -12 -20 -19 -20 -8 0 -14 9 -14 20 0 11 -4 20 -10 20
-5 0 -10 -25 -10 -55z m108 -6 c-2 -22 -8 -34 -18 -34 -20 0 -27 65 -8 76 19
12 30 -4 26 -42z"/>
<path d="M4580 951 c0 -27 5 -53 10 -56 6 -3 10 3 10 14 0 15 8 20 33 23 28 3
32 6 32 33 0 28 -3 30 -42 33 l-43 3 0 -50z m68 12 c-2 -10 -13 -19 -26 -21
-17 -3 -22 2 -22 17 0 16 6 21 26 21 19 0 25 -5 22 -17z"/>
<path d="M4707 993 c-12 -11 -8 -78 5 -91 7 -7 24 -12 38 -12 34 0 50 17 50
55 0 17 -5 36 -12 43 -13 13 -70 17 -81 5z m57 -9 c25 -10 21 -71 -5 -79 -12
-4 -26 -2 -31 3 -15 15 -13 63 3 73 17 11 14 10 33 3z"/>
<path d="M1591 763 c-1 -46 11 -55 31 -23 7 11 16 20 19 20 4 0 5 -9 2 -20 -3
-11 0 -20 6 -20 6 0 11 17 11 40 0 46 -11 51 -30 15 -17 -32 -28 -32 -33 3 -3
19 -4 14 -6 -15z"/>
<path d="M1688 794 c-12 -11 -10 -74 2 -74 6 0 10 7 10 15 0 8 9 15 20 15 13
0 18 -5 14 -15 -4 -8 -1 -15 5 -15 6 0 11 18 11 43 -1 37 -2 40 -14 25 -16
-22 -34 -23 -38 -2 -2 9 -6 12 -10 8z"/>
<path d="M1770 790 c0 -5 6 -10 14 -10 9 0 16 -13 19 -32 l4 -33 1 33 c1 17 7
32 12 32 6 0 10 5 10 10 0 6 -13 10 -30 10 -16 0 -30 -4 -30 -10z"/>
<path d="M1860 760 c0 -37 2 -40 28 -39 23 2 24 2 5 6 -27 5 -30 20 -5 26 15
4 15 5 -1 6 -10 0 -17 7 -14 14 2 6 11 11 21 9 9 -2 16 2 16 8 0 5 -11 10 -25
10 -22 0 -25 -4 -25 -40z"/>
<path d="M1937 793 c-8 -18 -7 -73 3 -73 5 0 10 14 10 30 0 20 5 30 15 30 8 0
15 5 15 10 0 12 -37 14 -43 3z"/>
<path d="M2010 758 c0 -24 4 -38 8 -32 4 7 16 13 27 15 14 3 20 12 20 29 0 20
-6 26 -27 28 -27 3 -28 1 -28 -40z m35 2 c-5 -8 -11 -8 -17 -2 -6 6 -7 16 -3
22 5 8 11 8 17 2 6 -6 7 -16 3 -22z"/>
<path d="M2090 761 c0 -45 13 -53 32 -21 15 23 30 27 22 6 -3 -8 -1 -17 5 -21
7 -4 11 7 11 29 0 44 -16 55 -32 22 -13 -31 -28 -34 -23 -6 2 11 0 22 -6 25
-5 4 -9 -12 -9 -34z"/>
<path d="M2187 793 c-11 -10 -8 -73 3 -73 6 0 10 4 10 9 0 5 9 11 20 14 26 7
37 36 19 48 -17 10 -43 12 -52 2z m38 -33 c-5 -8 -11 -8 -17 -2 -6 6 -7 16 -3
22 5 8 11 8 17 2 6 -6 7 -16 3 -22z"/>
<path d="M2274 786 c-3 -8 -4 -25 -2 -38 2 -18 9 -23 33 -23 28 0 30 3 30 35
0 31 -3 35 -28 38 -17 2 -29 -2 -33 -12z m54 -30 c-2 -13 -10 -21 -23 -21 -23
0 -33 34 -14 45 20 13 40 -1 37 -24z"/>
<path d="M2368 772 c-6 -42 0 -52 32 -52 27 0 29 2 27 38 -2 32 -7 37 -29 40
-22 3 -26 -1 -30 -26z m42 -2 c0 -5 -7 -10 -15 -10 -8 0 -15 5 -15 10 0 6 7
10 15 10 8 0 15 -4 15 -10z m0 -30 c0 -5 -7 -10 -15 -10 -8 0 -15 5 -15 10 0
6 7 10 15 10 8 0 15 -4 15 -10z"/>
<path d="M2472 787 c-6 -6 -14 -25 -18 -40 -6 -27 -5 -28 14 -16 17 11 23 10
38 -2 16 -13 17 -12 11 4 -4 11 -10 30 -13 43 -7 27 -16 30 -32 11z m14 -34
c-10 -10 -19 5 -10 18 6 11 8 11 12 0 2 -7 1 -15 -2 -18z"/>
<path d="M2638 794 c-12 -11 -10 -74 2 -74 6 0 10 7 10 15 0 8 7 15 15 15 8 0
15 -7 15 -15 0 -8 5 -15 10 -15 6 0 10 19 10 43 -1 37 -2 40 -14 25 -16 -22
-34 -23 -38 -2 -2 9 -6 12 -10 8z"/>
<path d="M2734 765 c-18 -45 -18 -48 5 -33 15 9 23 9 35 -1 19 -16 20 -6 5 38
-14 40 -27 39 -45 -4z m30 0 c3 -9 0 -15 -9 -15 -9 0 -12 6 -9 15 4 8 7 15 9
15 2 0 5 -7 9 -15z"/>
<path d="M2829 798 c-1 -2 -3 -21 -4 -42 -2 -36 -1 -38 12 -20 14 19 14 19 29
0 13 -18 14 -17 14 22 0 38 -2 42 -25 42 -14 0 -26 -1 -26 -2z m41 -29 c0 -5
-9 -9 -20 -9 -22 0 -27 16 -7 23 15 5 27 -1 27 -14z"/>
<path d="M2937 793 c-4 -3 -7 -21 -7 -40 0 -30 3 -33 28 -32 26 0 26 1 5 9
-13 5 -23 18 -23 28 0 10 10 24 23 30 21 10 21 11 1 11 -11 1 -24 -2 -27 -6z"/>
<path d="M3012 787 c9 -7 18 -26 21 -42 l4 -30 2 33 c0 21 6 32 16 32 8 0 15
5 15 10 0 6 -17 10 -37 10 -33 -1 -36 -2 -21 -13z"/>
<path d="M3090 758 c0 -24 4 -38 8 -32 4 7 16 13 27 15 14 3 20 12 20 29 0 20
-6 26 -27 28 -27 3 -28 1 -28 -40z m46 21 c8 -14 -18 -31 -30 -19 -9 9 0 30
14 30 5 0 12 -5 16 -11z"/>
<path d="M3171 795 c0 -5 6 -26 13 -45 l13 -35 16 32 c20 37 22 69 3 35 l-13
-24 -16 24 c-9 13 -16 19 -16 13z"/>
<path d="M3258 794 c-12 -11 -10 -74 2 -74 6 0 10 7 10 15 0 8 5 15 10 15 6 0
13 -7 16 -15 4 -8 11 -15 16 -15 6 0 3 11 -6 24 -10 15 -12 27 -6 31 6 3 10
12 10 18 0 7 -9 1 -19 -12 l-19 -25 -4 23 c-1 13 -6 19 -10 15z"/>
<path d="M3340 790 c0 -5 4 -10 9 -10 6 0 12 -15 14 -32 l4 -33 1 33 c1 21 7
32 17 32 8 0 15 5 15 10 0 6 -13 10 -30 10 -16 0 -30 -4 -30 -10z"/>
<path d="M3421 800 c-1 -3 5 -23 13 -45 l14 -39 21 34 c26 43 27 64 3 32 l-18
-24 -17 24 c-9 12 -16 21 -16 18z"/>
<path d="M3510 758 c0 -24 4 -38 8 -32 4 7 16 13 27 15 14 3 20 12 20 29 0 20
-6 26 -27 28 -27 3 -28 1 -28 -40z m50 11 c0 -5 -9 -9 -20 -9 -19 0 -26 11
-14 23 8 8 34 -3 34 -14z"/>
<path d="M3599 773 c-5 -16 -12 -34 -14 -40 -2 -7 0 -13 4 -13 5 0 11 6 14 13
3 10 9 10 26 0 30 -19 31 -17 14 27 -19 47 -30 50 -44 13z m31 -14 c0 -5 -4
-9 -10 -9 -5 0 -10 7 -10 16 0 8 5 12 10 9 6 -3 10 -10 10 -16z"/>
<path d="M3712 760 c0 -25 2 -37 5 -27 2 9 13 17 23 17 10 0 21 -8 23 -17 3
-10 5 2 5 27 0 25 -2 37 -5 28 -2 -10 -13 -18 -23 -18 -10 0 -21 8 -23 18 -3
9 -5 -3 -5 -28z"/>
<path d="M3798 760 c-2 -22 0 -40 4 -40 5 0 8 14 8 30 0 23 5 30 19 30 15 0
21 -8 24 -32 3 -29 4 -27 5 10 2 40 1 42 -27 42 -26 0 -29 -3 -33 -40z"/>
<path d="M3890 785 c-7 -9 -10 -25 -6 -40 6 -22 11 -26 39 -23 25 2 33 8 35
26 7 44 -41 70 -68 37z m48 -28 c3 -22 -1 -27 -17 -27 -15 0 -21 6 -21 23 0
46 33 49 38 4z"/>
<path d="M4025 786 c27 -12 28 -14 11 -22 -19 -7 -19 -8 0 -15 18 -6 17 -8 -6
-18 l-25 -11 25 3 c21 2 25 7 25 37 0 32 -3 35 -30 38 l-30 2 30 -14z"/>
<path d="M4090 800 c-5 -16 -4 -80 3 -80 4 0 7 7 7 15 0 9 9 15 21 15 15 0 19
-5 15 -15 -3 -8 -1 -15 4 -15 6 0 10 19 10 43 -1 37 -2 40 -14 25 -7 -10 -18
-18 -24 -18 -6 0 -13 8 -15 18 -3 9 -6 15 -7 12z"/>
<path d="M4177 793 c-2 -5 -3 -21 -3 -38 1 -26 5 -30 31 -32 20 -1 23 0 8 4
-27 5 -30 20 -5 26 16 4 16 5 0 6 -10 0 -18 6 -18 11 0 9 14 14 33 11 4 0 7 4
7 9 0 12 -47 14 -53 3z"/>
<path d="M4257 793 c-11 -10 -8 -73 3 -73 6 0 10 5 10 10 0 6 6 10 14 10 7 0
19 7 26 15 10 12 10 18 0 30 -13 16 -42 20 -53 8z m38 -21 c0 -18 -20 -15 -23
4 -3 10 1 15 10 12 7 -3 13 -10 13 -16z"/>
<path d="M4342 758 c1 -37 2 -39 5 -10 3 24 9 32 24 32 10 0 19 5 19 10 0 6
-11 10 -25 10 -23 0 -25 -3 -23 -42z"/>
<path d="M4411 779 c-14 -40 -2 -60 33 -57 28 3 31 6 31 38 0 31 -3 35 -28 38
-21 3 -29 -2 -36 -19z m49 -4 c16 -20 5 -45 -20 -45 -14 0 -20 7 -20 23 0 38
18 48 40 22z"/>
<path d="M4507 793 c-11 -11 -8 -73 4 -73 6 0 8 9 4 20 -7 23 10 28 19 5 3 -8
10 -15 16 -15 5 0 10 7 10 15 0 8 5 15 11 15 6 0 9 -7 6 -15 -4 -8 -2 -17 3
-20 6 -4 10 11 10 34 0 47 -16 54 -31 14 l-11 -28 -14 28 c-16 29 -17 30 -27
20z"/>
<path d="M4624 765 c-18 -45 -18 -48 6 -33 15 10 22 10 32 0 22 -22 26 -12 11
28 -9 22 -20 40 -25 40 -5 0 -16 -16 -24 -35z m36 -6 c0 -5 -7 -9 -15 -9 -9 0
-12 6 -9 15 6 15 24 11 24 -6z"/>
<path d="M4712 763 l-2 -43 45 0 45 0 -2 43 -1 42 -4 -37 c-3 -24 -9 -38 -18
-38 -9 0 -15 14 -18 38 l-4 37 -1 -37 c-1 -26 -7 -38 -16 -38 -10 0 -16 13
-19 38 l-4 37 -1 -42z"/>
<path d="M2540 755 c0 -19 5 -35 10 -35 6 0 10 7 10 15 0 8 7 15 15 15 8 0 15
-7 15 -15 0 -8 5 -15 10 -15 6 0 10 16 10 35 0 19 -4 35 -10 35 -5 0 -10 -4
-10 -10 0 -5 -7 -10 -15 -10 -8 0 -15 5 -15 10 0 6 -4 10 -10 10 -5 0 -10 -16
-10 -35z"/>
</g>
</svg>
