<?xml version="1.0" standalone="no"?>
<!DOCTYPE svg PUBLIC "-//W3C//DTD SVG 20010904//EN"
 "http://www.w3.org/TR/2001/REC-SVG-20010904/DTD/svg10.dtd">
<svg version="1.0" xmlns="http://www.w3.org/2000/svg"
 width="1024.000000pt" height="1024.000000pt" viewBox="0 0 1024.000000 1024.000000"
 preserveAspectRatio="xMidYMid meet">

<g transform="translate(0.000000,1024.000000) scale(0.100000,-0.100000)"
fill="#fff" stroke="none">
<path d="M7670 8093 c-637 -67 -1110 -293 -1456 -694 -48 -55 -92 -103 -99
-106 -8 -2 -69 13 -137 35 -278 90 -509 125 -838 125 -352 1 -643 -44 -919
-141 l-81 -29 -43 51 c-156 189 -271 296 -442 411 -253 170 -576 281 -955 330
-69 9 -152 15 -185 13 -96 -5 -90 47 -93 -748 -2 -395 1 -746 7 -830 11 -162
41 -296 90 -403 l30 -68 -78 -117 c-161 -242 -321 -539 -432 -802 -111 -267
-248 -737 -252 -870 -2 -72 3 -81 150 -295 305 -443 837 -873 1428 -1156 214
-103 280 -118 343 -79 41 25 66 80 56 123 -15 69 -27 78 -307 232 l-179 97
133 70 c74 39 165 90 204 115 155 100 335 259 461 408 l89 105 70 0 c111 0
136 11 184 79 23 33 99 156 170 273 l129 213 68 3 c101 3 112 7 122 45 16 58
-14 349 -59 566 -41 202 -125 451 -197 584 -46 88 -89 116 -147 97 -39 -13
-85 -62 -85 -90 0 -11 29 -86 64 -167 36 -81 63 -149 61 -151 -2 -2 -25 12
-52 31 -62 44 -150 88 -238 118 -63 22 -87 24 -245 24 -171 0 -177 -1 -262
-31 -48 -17 -118 -50 -155 -73 -112 -67 -592 -428 -1223 -919 -162 -126 -296
-228 -298 -227 -8 7 84 353 132 500 168 508 482 1057 843 1476 93 107 275 288
397 395 l70 60 -23 65 c-120 330 -360 572 -696 703 -38 15 -76 35 -82 44 -9
11 -13 59 -13 154 l0 138 26 0 c100 0 415 -93 586 -173 250 -117 465 -311 601
-543 26 -44 58 -91 72 -104 l25 -23 72 26 c263 93 338 117 377 123 l44 7 -9
-219 c-13 -325 -15 -301 30 -340 54 -46 92 -52 153 -22 76 38 82 60 73 253 -5
88 -9 211 -9 273 -1 104 0 112 18 112 10 0 65 5 121 10 56 6 105 8 109 5 3 -4
8 -304 11 -668 5 -609 6 -665 23 -694 9 -18 29 -40 42 -49 32 -21 96 -20 130
2 54 36 55 41 55 457 0 211 3 513 7 672 l6 287 86 -6 c229 -19 577 -105 774
-192 43 -19 88 -34 101 -34 29 0 61 35 128 140 194 303 447 496 801 615 109
37 319 85 370 85 l27 0 0 -153 0 -153 -67 -22 c-87 -28 -209 -90 -292 -149
-90 -64 -226 -203 -284 -290 -54 -82 -130 -231 -145 -284 -12 -44 -6 -56 61
-116 129 -118 297 -287 382 -386 457 -529 788 -1170 945 -1830 18 -75 30 -140
26 -144 -3 -4 -19 5 -34 19 -54 50 -1078 840 -1322 1020 -107 79 -223 143
-315 175 -75 26 -90 28 -250 28 -153 0 -177 -2 -240 -24 -90 -31 -197 -84
-258 -128 -26 -20 -50 -34 -52 -32 -2 2 22 58 52 124 82 178 85 190 69 228
-33 80 -109 94 -175 34 -54 -51 -151 -287 -206 -505 -51 -202 -105 -548 -105
-678 0 -57 27 -74 118 -74 l79 0 73 -122 c145 -246 244 -400 273 -424 25 -21
38 -24 110 -24 l82 0 110 -117 c230 -248 390 -371 662 -514 68 -35 123 -67
123 -70 0 -12 -164 -101 -319 -174 -164 -76 -528 -225 -551 -225 -6 0 -53 -40
-103 -88 -198 -189 -338 -269 -568 -322 -89 -20 -116 -22 -325 -18 -212 4
-236 7 -319 31 -115 35 -272 112 -355 175 -36 27 -103 84 -150 127 -47 43
-103 86 -125 96 -103 47 -205 -3 -205 -101 0 -69 77 -166 236 -298 292 -244
632 -345 1075 -321 344 19 608 133 901 390 90 79 111 91 277 154 517 197 995
477 1364 800 108 94 338 329 412 419 87 107 252 359 257 393 15 104 -123 598
-262 938 -101 246 -254 526 -432 792 l-68 102 39 99 c70 174 71 185 81 542 10
382 13 1267 4 1334 -6 42 -11 49 -45 67 -37 19 -47 20 -119 12z m-3520 -2839
c173 -51 324 -197 382 -371 24 -70 34 -230 19 -307 -31 -165 -176 -349 -337
-426 -34 -17 -97 -37 -140 -46 -57 -11 -87 -23 -107 -42 -25 -24 -208 -270
-284 -382 -46 -68 -69 -85 -115 -85 -50 0 -78 30 -78 84 0 41 16 67 168 268
49 65 96 130 105 144 l17 26 -90 52 c-50 28 -96 49 -101 45 -11 -7 -86 -107
-287 -384 -156 -216 -178 -240 -209 -240 -38 0 -79 26 -92 59 -18 42 -8 60
203 343 101 136 202 275 225 308 l41 62 -17 36 c-93 208 -94 375 -6 555 48 96
171 220 265 266 121 60 305 75 438 35z m2272 -215 c187 -40 307 -204 278 -382
-12 -76 -39 -123 -104 -185 -80 -76 -121 -92 -235 -92 -77 0 -103 4 -140 22
-63 31 -137 107 -168 174 -22 50 -25 66 -21 143 4 96 25 150 82 217 52 61 150
107 238 113 9 1 41 -4 70 -10z m-3223 -583 l32 -85 -233 -315 c-128 -172 -254
-344 -280 -380 -68 -94 -127 -109 -169 -42 -40 63 -46 54 393 639 115 152 213
275 217 273 5 -3 23 -44 40 -90z"/>
<path d="M3876 5089 c-64 -15 -155 -70 -201 -121 -116 -129 -146 -316 -75
-463 31 -64 128 -158 202 -194 56 -29 69 -31 162 -31 95 0 106 2 175 35 131
63 217 176 241 319 14 76 2 151 -37 234 -31 66 -122 159 -184 190 -81 39 -195
51 -283 31z m169 -218 c74 -33 125 -113 125 -196 0 -48 -40 -116 -88 -149 -59
-42 -149 -47 -207 -14 -81 47 -123 149 -95 233 26 78 113 145 190 145 19 0 53
-9 75 -19z"/>
<path d="M4021 6753 c-71 -35 -106 -130 -77 -208 45 -117 183 -148 271 -60
108 108 39 285 -110 285 -27 0 -65 -8 -84 -17z"/>
<path d="M3436 6300 c-93 -28 -137 -159 -82 -241 38 -56 80 -71 179 -64 45 3
214 10 374 15 286 8 293 9 322 32 64 51 71 136 15 189 l-26 24 -306 5 c-257 4
-312 8 -337 21 -39 21 -102 29 -139 19z"/>
<path d="M4589 6222 c-14 -4 -37 -16 -51 -28 -93 -73 -91 -208 4 -276 61 -43
175 -20 222 45 29 39 29 138 1 185 -34 57 -112 90 -176 74z"/>
<path d="M4834 3591 c-88 -15 -179 -94 -226 -197 -31 -69 -31 -196 0 -275 56
-141 237 -361 337 -412 217 -109 435 -19 619 256 86 129 110 194 110 292 -1
143 -69 257 -192 319 l-51 26 -278 -1 c-153 -1 -296 -5 -319 -8z m570 -269
c39 -42 45 -91 13 -128 l-25 -29 -260 -3 -260 -3 -21 27 c-31 39 -36 71 -18
110 11 22 26 36 44 40 15 3 33 7 38 9 6 2 112 4 236 4 l225 1 28 -28z"/>
</g>
</svg>
