<svg width="331" height="54" viewBox="0 0 331 54" fill="none" xmlns="http://www.w3.org/2000/svg">
<g clip-path="url(#clip0_16_41)">
<path d="M21.7628 1.09285C1.9028 5.23348 -6.12395 30.16 7.94355 44.5694C15.9703 52.9335 27.4726 55.1694 37.8991 50.4491C47.0843 46.2257 52.9596 37.4475 52.9596 27.7585V22.4585L50.3116 24.1975C48.0773 25.5225 47.4981 26.5991 47.0843 29.4975C45.0156 43.41 30.5343 50.8632 17.8736 44.6522C12.7431 42.085 9.76405 38.7725 7.8608 33.4725C4.46805 23.7007 9.10205 12.7694 18.5356 8.46317C23.0041 6.39285 30.7826 6.39285 35.2511 8.46317C38.6438 10.0366 38.6438 10.0366 40.9608 8.21473L43.2778 6.31004L40.8781 4.65379C36.2441 1.4241 27.8036 -0.149334 21.7628 1.09285Z" fill="white"/>
<path d="M76.5438 11.4444C71.9925 13.1006 69.51 16.1647 69.51 20.0569C69.51 24.6116 71.9925 27.3444 77.6195 28.9178C85.729 31.1538 86.8875 31.7335 86.8875 33.8866C86.8875 37.4475 80.5985 38.7725 74.7233 36.2881C70.834 34.6319 70.7513 34.7147 69.5928 37.1991C68.3515 40.0147 69.841 41.2569 76.0473 42.5819C84.1568 44.2381 91.1078 42.0022 93.2593 36.9506C95.4108 31.5678 92.5973 26.5991 86.5565 25.1085C78.8608 23.121 76.13 21.7131 76.13 19.7256C76.13 17.1585 80.0193 15.585 84.9015 16.3303C87.9633 16.7444 89.1218 16.496 90.7768 15.2538L92.7628 13.5975L90.363 12.3553C86.6393 10.4506 80.3503 10.0366 76.5438 11.4444Z" fill="white"/>
<path d="M37.3195 18.4836L27.1412 26.1023L22.4245 23.2039L17.7905 20.2227L17.5422 23.7008C17.2112 27.4273 17.4595 27.7586 23.7485 31.4023L27.1412 33.4727L38.809 24.943C45.1807 20.2227 50.4767 15.9992 50.4767 15.5023C50.4767 14.9227 49.8147 13.7633 49.07 12.7695L47.5805 10.9477L37.3195 18.4836Z" fill="white"/>
<path d="M100.127 26.7646V42.499H110.471C125.117 42.499 128.262 40.9256 128.262 33.5553C128.262 30.9053 127.765 29.8287 125.779 28.1725C124.207 26.8475 123.628 25.8537 124.207 25.4396C124.704 25.1912 125.614 23.6178 126.276 22.1271C127.269 19.6428 127.269 18.8975 126.193 16.4131C124.455 12.1068 121.228 11.0303 109.643 11.0303H100.127V26.7646ZM117.835 16.8271C119.49 17.4068 119.987 18.1521 119.987 20.1396C119.987 23.2037 117.753 24.2803 111.629 24.2803H107.574V20.1396V15.999H111.629C113.863 15.999 116.677 16.3303 117.835 16.8271ZM120.07 30.0771C120.897 30.574 121.642 31.8162 121.642 32.81C121.642 36.3709 120.401 37.0334 113.863 37.3646L107.574 37.6959V33.4725V29.249H113.036C116.015 29.249 119.159 29.6631 120.07 30.0771Z" fill="white"/>
<path d="M134.882 26.7646V42.499H146.881H158.879V40.0146V37.6131L150.439 37.3646L141.916 37.1162L141.667 33.1412L141.419 29.249H148.867H156.397V26.7646V24.3631L149.198 24.1146L141.916 23.8662V20.1396V16.4131L147.294 16.1646C151.846 15.9162 153.17 15.5021 155.569 13.5146L158.466 11.1131L146.715 11.0303H134.882V26.7646Z" fill="white"/>
<path d="M165.5 26.7648V42.4992H168.81H172.12V37.9445V33.3898H175.43C178.409 33.3898 178.906 33.7211 181.802 37.9445C184.781 42.1679 185.112 42.4164 188.504 42.4992C192.394 42.4992 192.394 42.7476 188.504 36.9507C185.774 32.8929 185.691 32.0648 187.76 30.9882C192.146 28.5867 193.139 19.4773 189.332 15.4195C186.188 11.9414 182.878 11.0304 173.775 11.0304H165.5V26.7648ZM183.457 17.9039C184.284 18.732 184.864 20.5539 184.864 22.2929C184.864 26.5992 182.381 28.4211 176.589 28.4211H172.12V22.1273V15.8336L177.085 16.1648C180.312 16.4132 182.629 16.9929 183.457 17.9039Z" fill="white"/>
<path d="M277.626 12.2725C268.276 15.585 264.635 27.51 270.262 36.1225C274.068 41.9194 283.667 44.2381 291.28 41.1741C294.259 40.0147 294.59 39.5178 294.59 37.0334V34.135L292.19 35.9569C289.211 38.11 283.088 38.9381 279.695 37.5303C275.309 35.7084 273.075 32.2303 273.075 27.2616C273.075 16.8272 282.84 12.1069 291.694 18.1522L294.59 20.0569V16.91C294.59 13.9287 294.342 13.5975 291.28 12.3553C287.225 10.6991 282.095 10.6991 277.626 12.2725Z" fill="#1890FF"/>
<path d="M208.529 13.9287C208.529 15.9162 208.695 15.999 213.908 15.999H219.287V29.249V42.499H221.769H224.252V29.249V15.999H229.631C234.844 15.999 235.009 15.9162 235.009 13.9287V11.8584H221.769H208.529V13.9287Z" fill="#1890FF"/>
<path d="M240.802 27.1787V42.499H251.559H262.317V40.0146V37.5303H254.042H245.767V32.9756V28.4209H253.214C260.579 28.4209 260.662 28.4209 260.662 26.3506C260.662 24.2803 260.579 24.2803 253.214 24.2803H245.767V20.1396V15.999H254.042H262.317V13.9287V11.8584H251.559H240.802V27.1787Z" fill="#1890FF"/>
<path d="M302.037 27.1787V42.499H304.52H307.002V35.46V28.4209H316.105H325.207V35.46V42.499H327.69H330.172V27.1787V11.8584H327.69H325.207V18.0693V24.2803H316.105H307.002V18.0693V11.8584H304.52H302.037V27.1787Z" fill="#1890FF"/>
</g>
<defs>
<clipPath id="clip0_16_41">
<rect width="331" height="53" fill="white" transform="translate(0 0.264648)"/>
</clipPath>
</defs>
</svg>
