<svg width="24" height="25" viewBox="0 0 24 25" fill="none" xmlns="http://www.w3.org/2000/svg">
<path d="M15.684 0.529297H8.316C1.592 0.529297 0 2.1213 0 8.8453V16.2133C0 22.9373 1.592 24.5293 8.316 24.5293H15.684C22.408 24.5293 24 22.9373 24 16.2133V8.8453C24 2.1213 22.391 0.529297 15.684 0.529297ZM19.376 17.6523H17.632C16.972 17.6523 16.768 17.1273 15.582 15.9253C14.549 14.9253 14.092 14.7903 13.838 14.7903C13.482 14.7903 13.38 14.8923 13.38 15.3833V16.9583C13.38 17.3823 13.245 17.6363 12.127 17.6363C10.281 17.6363 8.231 16.5183 6.792 14.4343C4.624 11.3863 4.03 9.0993 4.03 8.6253C4.03 8.3713 4.132 8.1343 4.623 8.1343H6.367C6.807 8.1343 6.977 8.3373 7.147 8.8113C8.01 11.3013 9.45 13.4863 10.043 13.4863C10.263 13.4863 10.365 13.3843 10.365 12.8263V10.2503C10.297 9.0643 9.67 8.9633 9.67 8.5403C9.67 8.3363 9.84 8.1333 10.11 8.1333H12.854C13.227 8.1333 13.362 8.3363 13.362 8.7763V12.2493C13.362 12.6213 13.532 12.7573 13.633 12.7573C13.853 12.7573 14.04 12.6213 14.446 12.2153C15.7 10.8093 16.597 8.6413 16.597 8.6413C16.716 8.3873 16.919 8.1503 17.36 8.1503H19.104C19.629 8.1503 19.748 8.4203 19.629 8.7933C19.409 9.8103 17.275 12.8243 17.275 12.8243C17.089 13.1293 17.021 13.2643 17.275 13.6043C17.461 13.8583 18.071 14.3833 18.478 14.8573C19.223 15.7043 19.798 16.4153 19.951 16.9073C20.121 17.3973 19.866 17.6513 19.375 17.6513L19.376 17.6523Z" fill="white"/>
</svg>
