<svg width="238" height="70" viewBox="0 0 238 70" fill="none" xmlns="http://www.w3.org/2000/svg">
<g clip-path="url(#clip0_16_130)">
<path d="M21.2436 0.526306C15.129 1.21631 10.2231 3.35769 7.02363 6.68872C3.68193 10.1863 1.99923 15.3494 2.37843 20.9884C2.80503 27.7218 5.53053 32.3853 12.048 37.6436L14.3469 39.4756L7.71093 49.3736L1.09863 59.2715H6.54963H12.0006L19.3713 48.1839C23.424 42.0929 26.6946 37.0725 26.6472 37.0487C26.5998 37.0011 25.0356 35.9304 23.1633 34.6456C17.025 30.4342 14.8446 28.3404 13.5411 25.3663C11.3133 20.2746 12.1428 14.1598 15.4371 11.2808C17.8782 9.13941 20.4615 8.37803 25.8177 8.18769L29.7756 8.04493V33.6701V59.2715H34.8711H39.9666V29.768V0.264584L31.5057 0.288376C26.8368 0.312172 22.2153 0.407341 21.2436 0.526306Z" fill="#FC3D17"/>
<path d="M145.313 15.9442C139.104 16.9435 134.482 20.679 132.16 26.5559C129.505 33.1704 129.458 43.3777 132.041 49.5401C133.653 53.347 136.426 56.4163 139.791 58.058C142.848 59.5808 144.91 60.0328 149.342 60.1518C154.841 60.3184 158.751 59.5808 162.59 57.6059L164.273 56.7494L164.344 52.538L164.392 48.3266L163.278 48.9928C159.557 51.2056 153.821 52.5856 149.887 52.2763C144.223 51.8242 141.592 49.3259 140.715 43.6156C140.573 42.6877 140.455 41.8787 140.455 41.8073C140.455 41.7359 145.953 41.6646 152.66 41.6646H164.866V38.0242C164.866 36.0494 164.747 33.3846 164.629 32.1473C163.681 23.2011 159.865 17.919 153.158 16.3249C151.404 15.8966 146.948 15.6825 145.313 15.9442ZM150.195 24.1053C152.589 24.819 154.011 27.1746 154.461 31.148C154.627 32.4566 154.675 33.7177 154.604 33.908C154.461 34.2649 153.656 34.2887 147.517 34.2411L140.573 34.1697L140.644 32.8611C140.905 28.1739 142.825 24.9856 145.906 24.0339C146.83 23.7721 149.2 23.7959 150.195 24.1053Z" fill="white"/>
<path d="M223.903 15.9919C214.944 17.1577 209.019 23.7246 207.763 33.9081C207.384 36.8346 207.573 42.4974 208.118 45.0908C208.64 47.5891 209.635 50.3729 210.631 52.0622C211.958 54.3463 214.707 56.8922 217.03 58.0581C220.466 59.7474 222.125 60.0805 227.315 60.0805C232.34 60.1043 233.43 59.9377 236.155 58.6529L237.862 57.8201V53.7039V49.5639L236.037 50.4919C233.406 51.8243 231.629 52.2288 228.382 52.2288C226.107 52.2288 225.419 52.1336 224.305 51.6815C221.556 50.6108 219.542 47.946 218.499 44.0439C217.883 41.8074 217.883 34.1222 218.499 31.9094C219.494 28.2453 221.296 25.8422 223.95 24.6287C225.325 23.9863 225.609 23.9387 228.382 23.9387C231.961 23.9625 233.501 24.3194 237.577 26.1277C237.791 26.2229 237.862 25.295 237.862 21.9639V17.705L236.866 17.3243C233.359 15.9919 228.05 15.4446 223.903 15.9919Z" fill="white"/>
<path d="M48.499 38.0957V59.5095H53.476H58.453V50.5871V41.6647H65.2075H71.962L72.0094 50.5157L72.0805 59.3906L77.1286 59.4619L82.153 59.5095V38.0957V16.6819H77.0575H71.962V25.1285V33.575L65.2786 33.5275L58.5715 33.4561L58.5004 25.0571L58.453 16.6819H53.476H48.499V38.0957Z" fill="white"/>
<path d="M93.7659 21.0122C93.7659 33.1229 92.4387 44.1391 90.3768 49.3974L89.6184 51.3009L88.0305 51.3722L86.4189 51.4436V60.3422V69.2646H91.0404H95.6619V64.3871V59.5095H107.038H118.414V64.3871V69.2646H123.035H127.657V60.3422V51.4198H125.405H123.154V34.0509V16.6819H108.46H93.7659V21.0122ZM112.987 24.8191C113.058 25.7709 113.081 50.8726 113.01 51.1105C112.939 51.3484 111.304 51.4198 105.924 51.4198C99.3591 51.4198 98.9325 51.396 99.051 50.9915C101.089 44.7815 101.966 38.9284 102.203 30.125C102.274 27.365 102.369 24.9857 102.416 24.8191C102.488 24.605 103.767 24.5336 107.749 24.5336C111.754 24.5336 112.963 24.605 112.987 24.8191Z" fill="white"/>
<path d="M171.738 38.0957V59.5095H176.715H181.692L181.74 49.0406L181.811 38.5478L189.229 49.0406L196.671 59.5095H202.335C206.791 59.5095 207.999 59.4381 207.857 59.224C207.739 59.0575 204.112 53.8468 199.775 47.6606C194.514 40.1657 191.931 36.2875 192.073 36.1209C193.116 34.7409 205.866 16.9199 205.866 16.8009C205.866 16.7295 203.615 16.7057 200.842 16.7295L195.841 16.8009L188.826 26.5323L181.811 36.2637L181.74 26.4847L181.692 16.6819H176.715H171.738V38.0957Z" fill="white"/>
</g>
<defs>
<clipPath id="clip0_16_130">
<rect width="237" height="69" fill="white" transform="translate(0.861328 0.264648)"/>
</clipPath>
</defs>
</svg>
